if (_typeface_js && _typeface_js.loadFace) _typeface_js.loadFace({"glyphs":{"¦":{"x_min":317,"x_max":378,"ha":694,"o":"m 378 277 l 378 -237 l 317 -237 l 317 277 l 378 277 m 378 971 l 378 457 l 317 457 l 317 971 l 378 971 "},"Ž":{"x_min":24,"x_max":765,"ha":790,"o":"m 24 0 l 24 84 l 641 917 l 71 917 l 71 999 l 755 999 l 755 919 l 133 83 l 765 83 l 765 0 l 24 0 m 209 1336 l 271 1336 l 396 1157 l 520 1336 l 583 1336 l 447 1099 l 344 1099 l 209 1336 "},"Á":{"x_min":-7,"x_max":861,"ha":856,"o":"m 232 387 l 620 387 l 426 901 l 232 387 m -7 0 l 372 999 l 482 999 l 861 0 l 764 0 l 651 307 l 203 307 l 88 0 l -7 0 m 420 1099 l 358 1099 l 499 1336 l 603 1336 l 420 1099 "},"Î":{"x_min":-22,"x_max":352,"ha":329,"o":"m 117 0 l 117 999 l 211 999 l 211 0 l 117 0 m -22 1099 l 113 1336 l 216 1336 l 352 1099 l 289 1099 l 165 1277 l 40 1099 l -22 1099 "},"e":{"x_min":57,"x_max":681,"ha":736,"o":"m 142 344 l 142 339 q 205 129 142 207 q 376 51 269 51 q 518 96 461 51 q 587 222 575 142 l 670 222 q 575 46 657 112 q 371 -20 494 -20 q 140 79 223 -20 q 57 356 57 179 q 140 637 57 536 q 373 739 224 739 q 599 642 518 739 q 681 371 681 545 l 681 344 l 142 344 m 143 411 l 595 410 q 530 597 589 529 q 372 666 470 666 q 211 596 273 666 q 143 411 149 527 "},"»":{"x_min":66,"x_max":512,"ha":566,"o":"m 315 164 l 315 254 l 457 363 l 315 474 l 315 565 l 512 415 l 512 312 l 315 164 m 66 164 l 66 254 l 207 363 l 66 474 l 66 565 l 263 415 l 263 312 l 66 164 "},"∆":{"x_min":-8,"x_max":913,"ha":905,"o":"m 783 82 l 453 918 l 120 82 l 783 82 m 511 999 l 913 0 l -8 0 l 394 999 l 511 999 "},"ò":{"x_min":57,"x_max":720,"ha":775,"o":"m 143 359 q 207 134 143 214 q 387 55 271 55 q 569 134 505 55 q 633 359 633 213 q 569 585 633 505 q 387 665 505 665 q 207 585 271 665 q 143 359 143 505 m 57 359 q 143 639 57 540 q 387 739 230 739 q 632 639 545 739 q 720 359 720 540 q 633 80 720 179 q 387 -18 546 -18 q 143 80 230 -18 q 57 359 57 179 m 409 814 l 227 1051 l 330 1051 l 472 814 l 409 814 "},"^":{"x_min":288,"x_max":1100,"ha":1389,"o":"m 733 989 l 1100 611 l 1015 611 l 694 929 l 372 611 l 288 611 l 653 989 l 733 989 "},"«":{"x_min":53,"x_max":500,"ha":566,"o":"m 500 565 l 500 474 l 357 363 l 500 254 l 500 164 l 303 312 l 303 415 l 500 565 m 250 565 l 250 474 l 108 363 l 250 254 l 250 164 l 53 312 l 53 415 l 250 565 "},"∙":{"x_min":129,"x_max":240,"ha":370,"o":"m 129 471 q 145 511 129 495 q 184 527 161 527 q 223 510 207 527 q 240 471 240 494 q 223 432 240 449 q 184 416 207 416 q 145 432 162 416 q 129 471 129 449 "},"í":{"x_min":58,"x_max":303,"ha":286,"o":"m 102 0 l 102 721 l 185 721 l 185 0 l 102 0 m 120 814 l 58 814 l 199 1051 l 303 1051 l 120 814 "},"ˆ":{"x_min":160,"x_max":534,"ha":694,"o":"m 160 814 l 295 1051 l 398 1051 l 534 814 l 471 814 l 347 992 l 222 814 l 160 814 "},"µ":{"x_min":-75,"x_max":693,"ha":742,"o":"m 221 721 l 137 320 q 128 268 131 291 q 126 225 126 245 q 166 94 126 139 q 284 50 207 50 q 433 123 370 50 q 526 336 496 197 l 610 721 l 693 721 l 580 187 q 577 171 579 181 q 563 95 563 109 q 575 63 563 74 q 609 52 587 52 q 622 53 615 52 q 636 54 628 53 l 623 -11 q 618 -12 621 -11 q 572 -20 585 -20 q 504 1 526 -20 q 482 66 482 22 q 482 77 482 71 q 484 96 482 83 q 401 10 455 40 q 273 -20 346 -20 q 158 10 207 -20 q 87 96 109 41 l 6 -288 l -75 -288 l 139 721 l 221 721 "},"č":{"x_min":57,"x_max":672,"ha":717,"o":"m 589 249 l 672 249 q 580 53 660 124 q 372 -18 500 -18 q 141 82 225 -18 q 57 355 57 182 q 142 636 57 534 q 377 739 228 739 q 577 670 499 739 q 662 491 655 602 l 582 491 q 515 617 571 569 q 377 665 459 665 q 206 583 269 665 q 143 362 143 502 q 207 136 143 219 q 379 53 271 53 q 519 105 463 53 q 589 249 576 157 m 205 1051 l 267 1051 l 392 872 l 516 1051 l 579 1051 l 443 814 l 340 814 l 205 1051 "},"’":{"x_min":122,"x_max":215,"ha":338,"o":"m 122 681 l 122 734 q 155 771 145 751 q 165 825 165 792 l 165 874 l 122 874 l 122 999 l 215 999 l 215 831 q 193 735 215 770 q 122 681 172 701 "},"-":{"x_min":54,"x_max":390,"ha":454,"o":"m 54 321 l 54 408 l 390 408 l 390 321 l 54 321 "},"Q":{"x_min":68,"x_max":984,"ha":1051,"o":"m 911 -74 l 769 39 q 663 -11 724 5 q 525 -28 603 -28 q 191 113 315 -28 q 68 498 68 255 q 191 883 68 741 q 525 1025 314 1025 q 860 883 736 1025 q 984 498 984 741 q 947 261 984 362 q 835 92 910 161 l 962 -9 l 911 -74 m 699 96 l 581 193 l 631 257 l 769 147 q 859 291 828 202 q 890 498 890 379 q 791 824 890 704 q 525 945 693 945 q 261 823 360 945 q 163 498 163 702 q 262 172 163 290 q 533 54 361 54 q 623 64 582 54 q 699 96 663 75 "},"M":{"x_min":110,"x_max":1020,"ha":1132,"o":"m 110 0 l 110 999 l 238 999 l 568 118 l 890 999 l 1020 999 l 1020 0 l 931 0 l 931 870 l 611 0 l 526 0 l 200 870 l 200 0 l 110 0 "},"œ":{"x_min":57,"x_max":1239,"ha":1299,"o":"m 142 351 q 203 131 142 209 q 377 54 265 54 q 551 134 488 54 q 615 357 615 214 q 551 583 615 502 q 377 665 488 665 q 202 584 263 665 q 142 351 142 503 m 706 410 l 1157 410 q 1095 597 1154 529 q 931 665 1035 665 q 775 597 835 665 q 706 410 715 530 m 658 155 q 550 25 622 70 q 377 -20 478 -20 q 140 76 224 -20 q 57 351 57 173 q 139 637 57 536 q 373 739 222 739 q 547 693 474 739 q 658 560 620 647 q 766 692 696 646 q 931 739 837 739 q 1160 645 1082 739 q 1239 371 1239 551 l 1239 344 l 705 344 l 705 333 q 766 128 705 203 q 934 54 828 54 q 1080 98 1023 54 q 1150 221 1137 142 l 1232 221 q 1134 43 1213 107 q 930 -20 1054 -20 q 764 24 833 -20 q 658 155 694 69 "},"{":{"x_min":120,"x_max":574,"ha":694,"o":"m 574 942 l 548 942 q 425 907 457 942 q 394 762 394 872 l 394 599 q 365 431 394 481 q 262 360 336 382 q 365 290 336 338 q 394 121 394 241 l 394 -42 q 425 -185 394 -151 q 547 -220 456 -220 l 574 -220 l 574 -280 l 544 -280 q 371 -229 417 -280 q 325 -25 325 -178 l 325 137 q 285 287 325 244 q 150 331 246 331 q 135 330 145 331 q 120 330 126 330 l 120 391 q 133 390 126 390 q 153 390 140 390 q 286 433 247 390 q 325 584 325 477 l 325 746 q 371 951 325 900 q 544 1002 417 1002 l 574 1002 l 574 942 "},"¼":{"x_min":82,"x_max":1131,"ha":1164,"o":"m 993 178 l 993 464 l 781 178 l 993 178 m 993 0 l 993 135 l 729 135 l 729 178 l 988 528 l 1050 528 l 1050 178 l 1131 178 l 1131 135 l 1050 135 l 1050 0 l 993 0 m 233 -28 l 856 971 l 927 971 l 304 -28 l 233 -28 m 235 415 l 235 848 q 179 825 214 832 q 90 818 144 818 l 82 818 l 82 851 l 84 851 q 198 877 161 851 q 240 958 236 903 l 292 958 l 292 415 l 235 415 "},"#":{"x_min":87,"x_max":980,"ha":1068,"o":"m 663 587 l 480 587 l 413 396 l 595 396 l 663 587 m 619 986 l 501 648 l 685 648 l 805 986 l 879 986 l 761 648 l 980 648 l 958 587 l 739 587 l 671 396 l 907 396 l 887 335 l 649 335 l 531 0 l 455 0 l 574 335 l 391 335 l 270 0 l 195 0 l 313 335 l 87 335 l 108 396 l 335 396 l 403 587 l 159 587 l 178 648 l 426 648 l 545 986 l 619 986 "},"Ê":{"x_min":111,"x_max":782,"ha":840,"o":"m 111 0 l 111 999 l 765 999 l 765 917 l 203 917 l 203 552 l 716 552 l 716 473 l 203 473 l 203 82 l 782 82 l 782 0 l 111 0 m 260 1099 l 395 1336 l 498 1336 l 634 1099 l 571 1099 l 447 1277 l 322 1099 l 260 1099 "},")":{"x_min":21,"x_max":309,"ha":439,"o":"m 21 999 l 88 999 q 253 704 197 865 q 309 358 309 542 q 253 13 309 175 q 88 -281 197 -147 l 21 -281 q 173 17 124 -138 q 223 358 223 173 q 173 701 223 545 q 21 999 124 857 "},"Å":{"x_min":-7,"x_max":861,"ha":856,"o":"m 233 387 l 620 387 l 427 901 l 233 387 m -7 0 l 372 999 l 483 999 l 861 0 l 764 0 l 651 307 l 204 307 l 88 0 l -7 0 m 330 1177 q 358 1108 330 1136 q 427 1080 386 1080 q 495 1108 467 1080 q 524 1177 524 1136 q 495 1246 524 1218 q 427 1275 467 1275 q 358 1246 386 1275 q 330 1177 330 1218 m 268 1177 q 314 1290 268 1244 q 428 1337 360 1337 q 540 1290 494 1337 q 586 1177 586 1244 q 540 1064 586 1110 q 428 1018 494 1018 q 314 1064 360 1018 q 268 1177 268 1110 "},"¸":{"x_min":205,"x_max":530,"ha":694,"o":"m 205 -284 l 205 -231 q 297 -249 257 -243 q 366 -255 337 -255 q 432 -239 409 -255 q 455 -194 455 -223 q 431 -140 455 -157 q 356 -123 407 -123 q 337 -123 343 -123 q 325 -124 330 -123 l 324 0 l 369 0 l 369 -75 l 378 -75 q 490 -104 451 -75 q 530 -191 530 -134 q 490 -280 530 -249 q 377 -311 451 -311 q 295 -304 337 -311 q 205 -284 253 -298 "},"a":{"x_min":57,"x_max":725,"ha":745,"o":"m 557 377 q 471 357 523 365 q 304 344 419 350 q 183 284 224 323 q 143 191 143 246 q 186 93 143 130 q 305 57 230 57 q 488 116 420 57 q 557 277 557 175 l 557 377 m 562 104 q 438 12 505 42 q 295 -18 372 -18 q 121 38 186 -18 q 57 190 57 95 q 86 298 57 252 q 172 371 116 344 q 387 411 236 400 q 431 414 416 413 q 455 419 440 416 q 558 508 558 440 q 516 628 558 592 q 379 665 474 665 q 230 624 282 665 q 175 505 179 584 l 93 505 q 172 676 95 613 q 379 739 248 739 q 575 683 508 739 q 643 520 643 627 l 643 127 q 653 71 643 82 q 694 61 664 61 q 710 61 703 61 q 725 62 717 61 l 725 0 q 693 -5 709 -3 q 665 -7 678 -7 q 588 18 613 -7 q 562 92 562 43 l 562 104 "},"=":{"x_min":172,"x_max":984,"ha":1157,"o":"m 984 318 l 984 262 l 172 262 l 172 318 l 984 318 m 984 564 l 984 510 l 172 510 l 172 564 l 984 564 "},"˚":{"x_min":184,"x_max":510,"ha":694,"o":"m 246 964 q 275 892 246 921 q 347 864 304 864 q 418 893 388 864 q 448 964 448 922 q 418 1036 448 1006 q 347 1066 389 1066 q 275 1036 304 1066 q 246 964 246 1006 m 184 965 q 231 1081 184 1034 q 346 1128 278 1128 q 462 1080 415 1128 q 510 965 510 1033 q 462 849 510 896 q 346 802 414 802 q 231 849 278 802 q 184 965 184 896 "},"ú":{"x_min":90,"x_max":657,"ha":751,"o":"m 657 721 l 657 0 l 576 0 l 576 115 q 475 13 535 46 q 335 -20 416 -20 q 151 44 212 -20 q 90 236 90 108 l 90 721 l 173 721 l 173 255 q 213 102 173 147 q 349 57 254 57 q 513 120 453 57 q 574 294 574 183 l 574 721 l 657 721 m 353 814 l 291 814 l 432 1051 l 536 1051 l 353 814 "},"¯":{"x_min":174,"x_max":521,"ha":694,"o":"m 174 882 l 174 961 l 521 961 l 521 882 l 174 882 "},"Z":{"x_min":24,"x_max":765,"ha":790,"o":"m 24 0 l 24 84 l 641 917 l 71 917 l 71 999 l 755 999 l 755 919 l 133 83 l 765 83 l 765 0 l 24 0 "},"u":{"x_min":90,"x_max":657,"ha":751,"o":"m 657 721 l 657 0 l 576 0 l 576 115 q 475 13 535 46 q 335 -20 416 -20 q 151 44 212 -20 q 90 236 90 108 l 90 721 l 173 721 l 173 255 q 213 102 173 147 q 349 57 254 57 q 513 120 453 57 q 574 294 574 183 l 574 721 l 657 721 "},"k":{"x_min":93,"x_max":676,"ha":672,"o":"m 93 0 l 93 999 l 176 999 l 176 371 l 536 721 l 643 721 l 370 457 l 676 0 l 579 0 l 312 401 l 176 270 l 176 0 l 93 0 "},"Ù":{"x_min":104,"x_max":864,"ha":968,"o":"m 104 999 l 196 999 l 196 369 q 264 128 196 203 q 483 54 332 54 q 703 128 634 54 q 772 369 772 203 l 772 999 l 864 999 l 864 356 q 768 68 864 165 q 483 -28 672 -28 q 199 68 294 -28 q 104 356 104 165 l 104 999 m 507 1099 l 325 1336 l 428 1336 l 570 1099 l 507 1099 "},"¢":{"x_min":49,"x_max":676,"ha":739,"o":"m 248 89 l 431 660 q 402 665 416 663 q 377 667 389 667 q 200 586 264 667 q 136 364 136 506 q 164 194 136 264 q 248 89 193 124 m 595 249 l 676 249 q 587 53 667 126 q 380 -20 506 -20 q 337 -17 360 -20 q 285 -8 313 -14 l 226 -195 l 156 -195 l 222 11 q 92 143 136 55 q 49 355 49 231 q 137 637 49 534 q 377 741 225 741 q 414 738 395 741 q 454 732 433 736 l 504 891 l 574 891 l 517 711 q 625 624 586 681 q 668 492 663 568 l 587 492 q 558 577 581 541 q 492 636 534 613 l 308 63 q 350 57 331 59 q 381 55 368 55 q 525 107 467 55 q 595 249 583 159 "},"Ş":{"x_min":63,"x_max":777,"ha":842,"o":"m 63 302 l 155 302 q 229 119 156 184 q 435 54 302 54 q 618 106 551 54 q 685 251 685 159 q 638 381 685 336 q 452 462 591 426 l 357 486 q 145 586 204 525 q 87 756 87 646 q 175 951 87 878 q 412 1025 264 1025 q 658 944 570 1025 q 749 721 746 864 l 656 721 q 589 885 653 827 q 409 944 525 944 q 239 894 299 944 q 179 754 179 844 q 218 646 179 685 q 348 583 257 606 l 464 554 q 707 444 637 510 q 777 260 777 377 q 685 49 777 126 q 433 -28 593 -28 q 159 55 255 -28 q 63 295 63 139 l 63 302 m 279 -284 l 279 -231 q 371 -249 331 -243 q 440 -255 411 -255 q 506 -239 483 -255 q 529 -194 529 -223 q 505 -140 529 -157 q 430 -123 481 -123 q 411 -123 417 -123 q 399 -124 404 -123 l 398 0 l 443 0 l 443 -75 l 452 -75 q 564 -104 525 -75 q 604 -191 604 -134 q 564 -280 604 -249 q 451 -311 525 -311 q 369 -304 411 -311 q 279 -284 327 -298 "},"é":{"x_min":57,"x_max":681,"ha":736,"o":"m 142 344 l 142 339 q 205 129 142 207 q 376 51 269 51 q 518 96 461 51 q 587 222 575 142 l 670 222 q 575 46 657 112 q 371 -20 494 -20 q 140 79 223 -20 q 57 356 57 179 q 140 637 57 536 q 373 739 224 739 q 599 642 518 739 q 681 371 681 545 l 681 344 l 142 344 m 143 411 l 595 410 q 530 597 589 529 q 372 666 470 666 q 211 596 273 666 q 143 411 149 527 m 345 814 l 283 814 l 424 1051 l 528 1051 l 345 814 "},"B":{"x_min":111,"x_max":832,"ha":889,"o":"m 203 82 l 472 82 q 679 125 621 82 q 737 273 737 168 q 672 426 737 374 q 479 478 607 478 l 203 478 l 203 82 m 425 917 l 203 917 l 203 555 l 416 555 q 631 596 571 555 q 692 737 692 637 q 634 876 692 835 q 425 917 576 917 m 111 0 l 111 999 l 441 999 q 578 989 527 999 q 665 958 628 980 q 754 869 722 926 q 786 743 786 813 q 747 612 786 668 q 637 527 708 555 q 780 438 728 507 q 832 269 832 370 q 790 116 832 181 q 674 22 748 51 q 583 5 644 10 q 387 0 523 0 l 111 0 "},"…":{"x_min":186,"x_max":1205,"ha":1389,"o":"m 186 0 l 186 123 l 278 123 l 278 0 l 186 0 m 649 0 l 649 123 l 741 123 l 741 0 l 649 0 m 1113 0 l 1113 123 l 1205 123 l 1205 0 l 1113 0 "},"H":{"x_min":111,"x_max":866,"ha":978,"o":"m 111 0 l 111 999 l 203 999 l 203 566 l 773 566 l 773 999 l 866 999 l 866 0 l 773 0 l 773 484 l 203 484 l 203 0 l 111 0 "},"î":{"x_min":-44,"x_max":330,"ha":286,"o":"m 102 0 l 102 721 l 185 721 l 185 0 l 102 0 m -44 814 l 91 1051 l 194 1051 l 330 814 l 267 814 l 143 992 l 18 814 l -44 814 "},"−":{"x_min":172,"x_max":984,"ha":1157,"o":"m 984 442 l 984 386 l 172 386 l 172 442 l 984 442 "},"≠":{"x_min":172,"x_max":984,"ha":1157,"o":"m 867 751 l 720 564 l 984 564 l 984 510 l 685 510 l 537 318 l 984 318 l 984 262 l 502 262 l 329 42 l 288 75 l 434 262 l 172 262 l 172 318 l 467 318 l 617 510 l 172 510 l 172 564 l 652 564 l 824 785 l 867 751 "},"¥":{"x_min":-4,"x_max":783,"ha":778,"o":"m 343 0 l 343 413 l 4 413 l 4 474 l 307 474 l 234 581 l 4 581 l 4 642 l 193 642 l -4 943 l 95 943 l 388 493 l 682 943 l 783 943 l 583 642 l 773 642 l 773 581 l 544 581 l 470 474 l 773 474 l 773 413 l 435 413 l 435 0 l 343 0 "},"U":{"x_min":104,"x_max":864,"ha":968,"o":"m 104 999 l 196 999 l 196 369 q 264 128 196 203 q 483 54 332 54 q 703 128 634 54 q 772 369 772 203 l 772 999 l 864 999 l 864 356 q 768 68 864 165 q 483 -28 672 -28 q 199 68 294 -28 q 104 356 104 165 l 104 999 "},"Ñ":{"x_min":111,"x_max":865,"ha":978,"o":"m 111 0 l 111 999 l 212 999 l 776 142 l 776 999 l 865 999 l 865 0 l 763 0 l 201 857 l 201 0 l 111 0 m 685 1278 q 634 1185 667 1217 q 555 1154 601 1154 q 535 1156 546 1154 q 511 1161 524 1158 l 446 1182 q 428 1186 437 1185 q 409 1188 419 1188 q 373 1175 389 1188 q 347 1140 357 1163 l 293 1140 q 341 1231 307 1199 q 425 1263 375 1263 q 444 1261 436 1263 q 461 1257 453 1260 l 526 1235 q 545 1230 535 1232 q 564 1228 554 1228 q 602 1240 586 1228 q 629 1278 618 1252 l 685 1278 "},"F":{"x_min":111,"x_max":743,"ha":789,"o":"m 111 0 l 111 999 l 743 999 l 743 917 l 203 917 l 203 555 l 692 555 l 692 473 l 203 473 l 203 0 l 111 0 "},"*":{"x_min":93,"x_max":599,"ha":694,"o":"m 346 695 l 223 517 l 160 562 l 295 731 l 93 786 l 116 864 l 314 791 l 314 999 l 378 999 l 378 791 l 571 861 l 599 788 l 396 731 l 532 562 l 468 515 l 346 695 "},"†":{"x_min":56,"x_max":639,"ha":694,"o":"m 305 -146 l 305 636 l 56 636 l 56 708 l 305 708 l 305 999 l 386 999 l 386 708 l 639 708 l 639 636 l 386 636 l 386 -146 l 305 -146 "},"∕":{"x_min":-232,"x_max":462,"ha":232,"o":"m -232 -28 l 391 971 l 462 971 l -161 -28 l -232 -28 "},"°":{"x_min":43,"x_max":414,"ha":457,"o":"m 373 797 q 330 899 373 856 q 228 942 287 942 q 126 899 168 942 q 84 797 84 857 q 126 695 84 737 q 228 653 168 653 q 330 695 288 653 q 373 797 373 737 m 229 983 q 359 928 305 983 q 414 797 414 873 q 359 665 414 719 q 228 612 305 612 q 96 665 150 612 q 43 797 43 719 q 97 928 43 874 q 229 983 152 983 "},"å":{"x_min":57,"x_max":725.0625,"ha":745,"o":"m 278 946 q 307 873 278 903 q 378 844 336 844 q 450 873 420 844 q 480 946 480 903 q 450 1017 480 988 q 378 1046 421 1046 q 307 1017 336 1046 q 278 946 278 988 m 216 946 q 263 1061 216 1014 q 379 1108 310 1108 q 494 1061 447 1108 q 542 946 542 1014 q 494 829 542 876 q 379 782 447 782 q 263 829 311 782 q 216 946 216 876 m 557 377 q 471 357 523 365 q 304 344 419 350 q 183 284 224 323 q 143 191 143 246 q 186 93 143 130 q 305 57 230 57 q 488 116 420 57 q 557 277 557 175 l 557 377 m 562 104 q 438 12 505 42 q 295 -18 372 -18 q 121 38 186 -18 q 57 190 57 95 q 86 298 57 252 q 172 370 116 344 q 387 411 236 399 q 431 414 416 413 q 455 419 440 416 q 558 508 558 440 q 516 628 558 592 q 379 665 474 665 q 230 624 282 665 q 175 505 179 584 l 93 505 q 172 676 95 613 q 379 739 248 739 q 575 683 508 739 q 643 520 643 627 l 643 127 q 653 71 643 82 q 694 61 664 61 q 710 61 704 61 q 725 62 717 61 l 725 0 q 693 -5 709 -3 q 665 -7 678 -7 q 588 18 613 -7 q 562 92 562 43 l 562 104 "},"0":{"x_min":52,"x_max":689,"ha":739,"o":"m 146 471 q 201 154 146 258 q 371 50 257 50 q 539 153 484 50 q 595 471 595 257 q 539 789 595 685 q 371 893 484 893 q 201 788 257 893 q 146 471 146 684 m 52 471 q 133 843 52 715 q 369 971 214 971 q 606 842 524 971 q 689 470 689 713 q 607 99 689 227 q 369 -28 525 -28 q 133 100 215 -28 q 52 471 52 228 "},"":{"x_min":77,"x_max":1021,"ha":1097,"o":"m 567 824 q 566 834 566 828 q 565 849 565 839 q 630 1005 565 934 q 790 1094 694 1077 q 791 1079 791 1087 q 791 1052 791 1070 q 721 893 791 963 q 583 823 651 823 l 578 823 q 573 824 576 823 q 567 824 570 824 m 1021 273 q 881 40 943 105 q 743 -24 820 -24 q 654 -1 709 -24 q 571 20 599 20 q 482 -1 540 20 q 396 -24 424 -24 q 309 5 353 -24 q 221 95 265 35 q 114 295 152 190 q 77 499 77 401 q 161 741 77 648 q 380 835 246 835 q 485 811 426 835 q 569 788 544 788 q 652 812 592 788 q 755 836 711 836 q 889 809 830 836 q 999 725 949 782 q 896 626 929 680 q 863 502 863 571 q 903 366 863 425 q 1021 273 944 307 "},"”":{"x_min":122,"x_max":426,"ha":549,"o":"m 334 681 l 334 734 q 367 769 357 748 q 377 825 377 790 l 377 874 l 334 874 l 334 999 l 426 999 l 426 831 q 404 734 426 768 q 334 681 383 700 m 122 681 l 122 734 q 154 769 144 748 q 165 825 165 790 l 165 874 l 122 874 l 122 999 l 215 999 l 215 831 q 193 735 215 769 q 122 681 172 700 "},"ö":{"x_min":57,"x_max":720,"ha":775,"o":"m 143 359 q 207 134 143 214 q 387 55 271 55 q 569 134 505 55 q 633 359 633 213 q 569 585 633 505 q 387 665 505 665 q 207 585 271 665 q 143 359 143 505 m 57 359 q 143 639 57 540 q 387 739 230 739 q 632 639 545 739 q 720 359 720 540 q 633 80 720 179 q 387 -18 546 -18 q 143 80 230 -18 q 57 359 57 179 m 448 867 l 448 977 l 544 977 l 544 867 l 448 867 m 230 867 l 230 977 l 326 977 l 326 867 l 230 867 "},"Õ":{"x_min":68,"x_max":984,"ha":1051,"o":"m 163 498 q 260 173 163 293 q 525 54 358 54 q 791 173 693 54 q 890 498 890 292 q 791 824 890 704 q 525 945 693 945 q 261 823 360 945 q 163 498 163 702 m 68 498 q 191 883 68 741 q 525 1025 314 1025 q 860 883 736 1025 q 984 498 984 741 q 860 113 984 255 q 525 -28 736 -28 q 191 113 314 -28 q 68 498 68 255 m 722 1278 q 671 1185 704 1217 q 592 1154 638 1154 q 572 1156 583 1154 q 548 1161 561 1158 l 483 1182 q 465 1186 474 1185 q 446 1188 456 1188 q 410 1175 426 1188 q 384 1140 394 1163 l 330 1140 q 378 1231 344 1199 q 462 1263 412 1263 q 481 1261 473 1263 q 498 1257 490 1260 l 563 1235 q 582 1230 572 1232 q 601 1228 591 1228 q 639 1240 623 1228 q 666 1278 655 1252 l 722 1278 "},"ć":{"x_min":57,"x_max":672,"ha":717,"o":"m 589 249 l 672 249 q 580 53 660 124 q 372 -18 500 -18 q 141 82 225 -18 q 57 355 57 182 q 142 636 57 534 q 377 739 228 739 q 577 670 499 739 q 662 491 655 602 l 582 491 q 515 617 571 569 q 377 665 459 665 q 206 583 269 665 q 143 362 143 502 q 207 136 143 219 q 379 53 271 53 q 519 105 463 53 q 589 249 576 157 m 369 814 l 307 814 l 448 1051 l 552 1051 l 369 814 "},"þ":{"x_min":96,"x_max":752,"ha":806,"o":"m 96 -290 l 96 999 l 181 999 l 181 591 q 283 702 221 666 q 432 739 345 739 q 666 637 581 739 q 752 359 752 535 q 665 81 752 182 q 428 -20 579 -20 q 284 15 345 -20 q 181 124 223 51 l 181 -290 l 96 -290 m 176 359 q 241 135 176 216 q 419 54 305 54 q 601 133 538 54 q 665 359 665 212 q 600 584 665 504 q 419 665 536 665 q 240 585 303 665 q 176 359 176 506 "},"]":{"x_min":39,"x_max":292,"ha":458,"o":"m 39 -277 l 39 -208 l 207 -208 l 207 930 l 39 930 l 39 999 l 292 999 l 292 -277 l 39 -277 "},"8":{"x_min":56,"x_max":684,"ha":739,"o":"m 150 262 q 211 109 150 168 q 369 50 272 50 q 528 109 468 50 q 589 268 589 169 q 530 418 589 363 q 369 473 471 473 q 207 417 265 473 q 150 262 150 362 m 184 717 q 233 592 184 638 q 370 547 282 547 q 507 592 457 547 q 557 717 557 638 q 506 848 557 800 q 370 897 456 897 q 234 848 284 897 q 184 717 184 800 m 224 513 q 124 599 157 549 q 92 720 92 650 q 167 902 92 834 q 369 971 242 971 q 572 902 497 971 q 647 720 647 834 q 614 599 647 650 q 515 513 582 549 q 639 417 594 483 q 684 264 684 351 q 599 50 684 129 q 370 -28 515 -28 q 140 50 224 -28 q 56 264 56 129 q 100 417 56 351 q 224 513 145 483 "},"R":{"x_min":111,"x_max":833,"ha":899,"o":"m 203 529 l 467 529 q 668 576 607 529 q 730 730 730 623 q 710 818 730 779 q 655 881 691 857 q 589 908 627 900 q 462 917 550 917 l 423 917 l 203 917 l 203 529 m 111 0 l 111 999 l 444 999 q 611 989 559 999 q 702 958 663 980 q 793 866 761 925 q 825 733 825 807 q 783 577 825 640 q 663 487 742 514 q 750 425 724 467 q 788 255 777 383 l 801 105 q 811 47 803 70 q 833 13 820 24 l 833 0 l 731 0 q 717 40 723 15 q 709 102 712 65 l 698 234 q 649 409 687 371 q 494 447 610 447 l 203 447 l 203 0 l 111 0 "},"o":{"x_min":57,"x_max":720,"ha":775,"o":"m 143 359 q 207 134 143 214 q 387 55 271 55 q 569 134 505 55 q 633 359 633 213 q 569 585 633 505 q 387 665 505 665 q 207 585 271 665 q 143 359 143 505 m 57 359 q 143 639 57 540 q 387 739 230 739 q 632 639 545 739 q 720 359 720 540 q 633 80 720 179 q 387 -18 546 -18 q 143 80 230 -18 q 57 359 57 179 "},"5":{"x_min":53,"x_max":676,"ha":739,"o":"m 53 249 l 143 249 q 206 103 147 156 q 364 51 265 51 q 525 114 467 51 q 583 291 583 177 q 523 475 583 408 q 357 543 463 543 q 241 518 292 543 q 159 446 190 493 l 83 446 l 156 943 l 631 943 l 631 866 l 222 866 l 174 553 q 259 600 210 584 q 373 616 309 616 q 593 528 511 616 q 676 295 676 441 q 591 59 676 146 q 360 -28 506 -28 q 141 46 224 -28 q 53 249 59 121 "},"õ":{"x_min":57,"x_max":720,"ha":775,"o":"m 143 359 q 207 134 143 214 q 387 55 271 55 q 569 134 505 55 q 633 359 633 213 q 569 585 633 505 q 387 665 505 665 q 207 585 271 665 q 143 359 143 505 m 57 359 q 143 639 57 540 q 387 739 230 739 q 632 639 545 739 q 720 359 720 540 q 633 80 720 179 q 387 -18 546 -18 q 143 80 230 -18 q 57 359 57 179 m 583 993 q 532 900 565 932 q 453 869 499 869 q 433 871 444 869 q 409 876 422 873 l 344 897 q 326 901 335 900 q 307 903 317 903 q 271 890 287 903 q 245 855 255 878 l 191 855 q 239 946 205 914 q 323 978 273 978 q 342 976 334 978 q 359 972 351 975 l 424 950 q 443 945 433 947 q 462 943 452 943 q 500 955 484 943 q 527 993 516 967 l 583 993 "},",":{"x_min":139,"x_max":231,"ha":370,"o":"m 139 -194 l 139 -140 q 172 -103 162 -124 q 182 -49 182 -82 l 182 0 l 139 0 l 139 123 l 231 123 l 231 -42 q 209 -139 231 -104 q 139 -194 188 -173 "},"d":{"x_min":58,"x_max":711,"ha":807,"o":"m 147 359 q 211 134 147 214 q 389 54 275 54 q 571 133 507 54 q 634 359 634 212 q 570 585 634 505 q 389 665 507 665 q 210 586 273 665 q 147 359 147 507 m 711 999 l 711 0 l 628 0 l 628 121 q 522 15 586 51 q 373 -20 458 -20 q 142 81 227 -20 q 58 359 58 183 q 144 636 58 534 q 378 739 231 739 q 526 703 463 739 q 628 595 589 667 l 628 999 l 711 999 "},"\"":{"x_min":68,"x_max":305,"ha":374,"o":"m 305 973 l 305 598 l 247 598 l 247 973 l 305 973 m 126 973 l 126 598 l 68 598 l 68 973 l 126 973 "},"˙":{"x_min":296,"x_max":399,"ha":694,"o":"m 296 863 l 296 981 l 399 981 l 399 863 l 296 863 "},"ê":{"x_min":57,"x_max":681,"ha":736,"o":"m 142 344 l 142 339 q 205 129 142 207 q 376 51 269 51 q 518 96 461 51 q 587 222 575 142 l 670 222 q 575 46 657 112 q 371 -20 494 -20 q 140 79 223 -20 q 57 356 57 179 q 140 637 57 536 q 373 739 224 739 q 599 642 518 739 q 681 371 681 545 l 681 344 l 142 344 m 143 411 l 595 410 q 530 597 589 529 q 372 666 470 666 q 211 596 273 666 q 143 411 149 527 m 181 814 l 316 1051 l 419 1051 l 555 814 l 492 814 l 368 992 l 243 814 l 181 814 "},"„":{"x_min":122,"x_max":426,"ha":549,"o":"m 334 -194 l 334 -140 q 366 -105 356 -126 q 377 -49 377 -83 l 377 0 l 334 0 l 334 123 l 426 123 l 426 -42 q 404 -139 426 -105 q 334 -194 383 -173 m 122 -194 l 122 -140 q 154 -105 144 -126 q 165 -49 165 -83 l 165 0 l 122 0 l 122 123 l 215 123 l 215 -42 q 193 -139 215 -104 q 122 -194 172 -173 "},"Â":{"x_min":-7,"x_max":861,"ha":856,"o":"m 232 387 l 620 387 l 426 901 l 232 387 m -7 0 l 372 999 l 482 999 l 861 0 l 764 0 l 651 307 l 203 307 l 88 0 l -7 0 m 256 1099 l 391 1336 l 494 1336 l 630 1099 l 567 1099 l 443 1277 l 318 1099 l 256 1099 "},"Í":{"x_min":80,"x_max":325,"ha":329,"o":"m 117 0 l 117 999 l 211 999 l 211 0 l 117 0 m 142 1099 l 80 1099 l 221 1336 l 325 1336 l 142 1099 "},"´":{"x_min":262,"x_max":507,"ha":694,"o":"m 324 814 l 262 814 l 403 1051 l 507 1051 l 324 814 "},"Ú":{"x_min":104,"x_max":864,"ha":968,"o":"m 104 999 l 196 999 l 196 369 q 264 128 196 203 q 483 54 332 54 q 703 128 634 54 q 772 369 772 203 l 772 999 l 864 999 l 864 356 q 768 68 864 165 q 483 -28 672 -28 q 199 68 294 -28 q 104 356 104 165 l 104 999 m 462 1099 l 400 1099 l 541 1336 l 645 1336 l 462 1099 "},"Ý":{"x_min":-10,"x_max":788,"ha":778,"o":"m 343 0 l 343 438 l -10 999 l 95 999 l 388 526 l 682 999 l 788 999 l 435 438 l 435 0 l 343 0 m 365 1099 l 303 1099 l 444 1336 l 548 1336 l 365 1099 "},"Ω":{"x_min":87,"x_max":987,"ha":1075,"o":"m 984 82 l 984 0 l 595 0 l 595 69 q 818 277 743 161 q 893 533 893 394 q 793 830 893 715 q 537 945 694 945 q 280 830 380 945 q 181 533 181 715 q 255 277 181 394 q 479 69 330 161 l 479 0 l 91 0 l 91 82 l 331 82 q 146 282 206 171 q 87 532 87 393 q 214 886 87 747 q 537 1026 342 1026 q 859 886 731 1026 q 987 532 987 747 q 926 282 987 393 q 742 82 866 171 l 984 82 "},"Ö":{"x_min":68,"x_max":984,"ha":1051,"o":"m 163 498 q 260 173 163 293 q 525 54 358 54 q 791 173 693 54 q 890 498 890 292 q 791 824 890 704 q 525 945 693 945 q 261 823 360 945 q 163 498 163 702 m 68 498 q 191 883 68 741 q 525 1025 314 1025 q 860 883 736 1025 q 984 498 984 741 q 860 113 984 255 q 525 -28 736 -28 q 191 113 314 -28 q 68 498 68 255 m 587 1152 l 587 1262 l 683 1262 l 683 1152 l 587 1152 m 369 1152 l 369 1262 l 465 1262 l 465 1152 l 369 1152 "},"z":{"x_min":28,"x_max":615,"ha":644,"o":"m 28 0 l 28 69 l 494 652 l 51 652 l 51 721 l 594 721 l 594 647 l 135 74 l 615 74 l 615 0 l 28 0 "},"™":{"x_min":186,"x_max":925,"ha":1157,"o":"m 627 986 l 745 687 l 855 986 l 925 986 l 925 627 l 885 627 l 885 951 l 762 627 l 729 627 l 600 951 l 600 627 l 559 627 l 559 986 l 627 986 m 470 986 l 470 951 l 352 951 l 352 627 l 307 627 l 307 951 l 186 951 l 186 986 l 470 986 "},"ã":{"x_min":57,"x_max":725,"ha":745,"o":"m 557 377 q 471 357 523 365 q 304 344 419 350 q 183 284 224 323 q 143 191 143 246 q 186 93 143 130 q 305 57 230 57 q 488 116 420 57 q 557 277 557 175 l 557 377 m 562 104 q 438 12 505 42 q 295 -18 372 -18 q 121 38 186 -18 q 57 190 57 95 q 86 298 57 252 q 172 371 116 344 q 387 411 236 400 q 431 414 416 413 q 455 419 440 416 q 558 508 558 440 q 516 628 558 592 q 379 665 474 665 q 230 624 282 665 q 175 505 179 584 l 93 505 q 172 676 95 613 q 379 739 248 739 q 575 683 508 739 q 643 520 643 627 l 643 127 q 653 71 643 82 q 694 61 664 61 q 710 61 703 61 q 725 62 717 61 l 725 0 q 693 -5 709 -3 q 665 -7 678 -7 q 588 18 613 -7 q 562 92 562 43 l 562 104 m 574 993 q 523 900 556 932 q 444 869 490 869 q 424 871 435 869 q 400 876 413 873 l 335 897 q 317 901 326 900 q 298 903 308 903 q 262 890 278 903 q 236 855 246 878 l 182 855 q 230 946 196 914 q 314 978 264 978 q 333 976 325 978 q 350 972 342 975 l 415 950 q 434 945 424 947 q 453 943 443 943 q 491 955 475 943 q 518 993 507 967 l 574 993 "},"æ":{"x_min":46,"x_max":1166.359375,"ha":1226,"o":"m 540 379 q 373 343 493 358 q 285 331 315 336 q 170 282 208 318 q 133 187 133 246 q 172 90 133 125 q 284 55 212 55 q 473 111 407 55 q 540 272 540 168 l 540 379 m 625 410 l 1079 410 q 1019 597 1078 530 q 855 665 960 665 q 694 595 756 665 q 625 410 631 526 m 581 144 q 456 23 533 65 q 281 -18 379 -18 q 110 38 174 -18 q 46 189 46 94 q 71 290 46 245 q 142 360 96 335 q 366 413 208 396 q 381 414 376 414 q 517 442 494 427 q 541 510 541 458 q 499 628 541 592 q 363 665 457 665 q 216 624 267 665 q 165 506 165 583 l 165 503 l 82 503 q 155 676 82 613 q 358 739 228 739 q 521 708 457 739 q 614 616 585 677 q 721 708 662 677 q 853 739 781 739 q 1084 645 1003 739 q 1166 379 1166 551 q 1165 362 1166 374 q 1165 344 1165 350 l 623 344 l 623 331 q 685 128 623 202 q 855 55 747 55 q 1004 99 946 55 q 1073 222 1062 143 l 1158 222 q 1061 48 1144 115 q 859 -18 979 -18 q 687 23 759 -18 q 581 144 616 65 "},"É":{"x_min":111,"x_max":782,"ha":840,"o":"m 111 0 l 111 999 l 765 999 l 765 917 l 203 917 l 203 552 l 716 552 l 716 473 l 203 473 l 203 82 l 782 82 l 782 0 l 111 0 m 424 1099 l 362 1099 l 503 1336 l 607 1336 l 424 1099 "},"~":{"x_min":121,"x_max":1038,"ha":1157,"o":"m 1038 438 q 900 363 966 388 q 775 339 835 339 q 595 380 708 339 q 580 385 584 384 q 557 393 572 388 q 383 434 444 434 q 264 408 327 434 q 121 325 202 383 l 121 388 q 257 462 192 438 q 383 487 322 487 q 567 445 451 487 q 580 441 575 442 q 598 434 585 438 q 775 393 712 393 q 894 418 831 393 q 1038 500 956 443 l 1038 438 "},"³":{"x_min":32,"x_max":446,"ha":488,"o":"m 32 545 l 94 545 q 132 443 95 479 q 236 407 169 407 q 346 440 308 407 q 385 537 385 474 q 344 627 385 598 q 222 657 304 657 q 206 656 211 657 q 196 655 200 656 l 196 699 q 207 698 200 699 q 218 698 215 698 q 329 726 292 698 q 367 809 367 754 q 333 886 367 857 q 244 916 299 916 q 146 882 181 916 q 110 788 112 849 l 53 788 q 106 914 56 869 q 244 960 156 960 q 377 919 327 960 q 427 809 427 878 q 404 733 427 766 q 337 681 382 701 q 418 629 390 666 q 446 534 446 591 q 390 408 446 455 q 240 361 335 361 q 87 409 143 361 q 32 543 32 458 l 32 545 "},"¡":{"x_min":171,"x_max":263,"ha":433,"o":"m 244 753 l 263 362 l 263 0 l 171 0 l 171 362 l 190 753 l 244 753 m 263 999 l 263 874 l 171 874 l 171 999 l 263 999 "},"[":{"x_min":167,"x_max":419,"ha":458,"o":"m 419 -277 l 167 -277 l 167 999 l 419 999 l 419 930 l 252 930 l 252 -208 l 419 -208 l 419 -277 "},"%":{"x_min":52,"x_max":1074,"ha":1125,"o":"m 695 230 q 738 124 695 168 q 844 81 782 81 q 949 124 906 81 q 993 230 993 167 q 950 336 993 293 q 844 379 907 379 q 738 335 781 379 q 695 230 695 292 m 614 230 q 680 393 614 327 q 844 460 747 460 q 1007 393 941 460 q 1074 230 1074 327 q 1007 66 1074 133 q 844 0 941 0 q 681 67 748 0 q 614 230 614 134 m 216 -27 l 839 970 l 909 970 l 287 -27 l 216 -27 m 133 712 q 176 606 133 649 q 282 564 219 564 q 387 606 344 564 q 431 712 431 649 q 387 818 431 775 q 282 862 344 862 q 175 818 218 862 q 133 712 133 775 m 52 713 q 118 876 52 810 q 281 943 184 943 q 445 876 378 943 q 512 713 512 810 q 444 549 512 616 q 281 483 377 483 q 118 549 184 483 q 52 713 52 616 "},"P":{"x_min":111,"x_max":787,"ha":839,"o":"m 203 516 l 416 516 q 628 563 564 516 q 693 719 693 611 q 635 869 693 821 q 455 917 577 917 l 203 917 l 203 516 m 111 0 l 111 999 l 459 999 q 705 928 623 999 q 787 718 787 857 q 695 503 787 573 q 415 433 603 433 l 203 433 l 203 0 l 111 0 "},"∏":{"x_min":111,"x_max":900,"ha":1011,"o":"m 111 999 l 900 999 l 900 -266 l 808 -266 l 808 916 l 203 916 l 203 -266 l 111 -266 l 111 999 "},"_":{"x_min":0,"x_max":694,"ha":694,"o":"m 694 -274 l 694 -328 l 0 -328 l 0 -274 l 694 -274 "},"ñ":{"x_min":93,"x_max":659,"ha":749,"o":"m 93 0 l 93 721 l 173 721 l 173 605 q 274 705 214 672 q 412 739 334 739 q 543 712 487 739 q 629 637 599 686 q 652 576 645 612 q 659 459 659 541 l 659 438 l 659 0 l 573 0 l 573 446 q 533 618 573 573 q 396 664 494 664 q 236 599 295 664 q 178 425 178 535 l 178 0 l 93 0 m 599 993 q 548 900 581 932 q 469 869 515 869 q 449 871 460 869 q 425 876 438 873 l 360 897 q 342 901 351 900 q 323 903 333 903 q 287 890 303 903 q 261 855 271 878 l 207 855 q 255 946 221 914 q 339 978 289 978 q 358 976 350 978 q 375 972 367 975 l 440 950 q 459 945 449 947 q 478 943 468 943 q 516 955 500 943 q 543 993 532 967 l 599 993 "},"‚":{"x_min":122,"x_max":215,"ha":338,"o":"m 122 -194 l 122 -140 q 154 -103 144 -124 q 165 -49 165 -82 l 165 0 l 122 0 l 122 123 l 215 123 l 215 -42 q 193 -138 215 -104 q 122 -194 172 -173 "},"Æ":{"x_min":4,"x_max":1284,"ha":1341,"o":"m 260 387 l 645 387 l 645 917 l 481 917 l 260 387 m 4 0 l 422 999 l 1269 999 l 1269 917 l 739 917 l 739 552 l 1218 552 l 1218 473 l 739 473 l 739 82 l 1284 82 l 1284 0 l 645 0 l 645 307 l 228 307 l 99 0 l 4 0 "},"₣":{"x_min":111,"x_max":1195,"ha":1215,"o":"m 111 0 l 111 999 l 743 999 l 743 917 l 203 917 l 203 555 l 692 555 l 692 473 l 203 473 l 203 0 l 111 0 m 882 0 l 882 721 l 962 721 l 962 595 q 1049 703 993 667 q 1185 739 1104 739 l 1195 739 l 1195 652 l 1184 652 q 1022 588 1076 652 q 968 397 968 524 l 968 0 l 882 0 "},"ğ":{"x_min":58,"x_max":711,"ha":804,"o":"m 147 359 q 211 134 147 216 q 389 53 276 53 q 570 133 505 53 q 634 359 634 214 q 570 585 634 505 q 389 665 506 665 q 210 585 273 665 q 147 359 147 506 m 711 721 l 711 37 q 624 -211 711 -127 q 369 -296 537 -296 q 165 -239 242 -296 q 80 -85 87 -182 l 165 -85 q 224 -185 172 -150 q 367 -221 276 -221 q 563 -156 498 -221 q 629 34 629 -92 l 629 123 q 522 15 585 51 q 377 -20 459 -20 q 143 81 229 -20 q 58 359 58 182 q 144 636 58 534 q 377 739 231 739 q 523 703 461 739 q 628 595 585 667 l 628 721 l 711 721 m 217 1020 l 271 1020 q 306 945 275 969 q 403 922 338 922 q 498 944 468 922 q 534 1020 528 967 l 589 1020 q 538 885 582 928 q 403 843 493 843 q 268 885 313 843 q 217 1020 223 928 "},"ª":{"x_min":43,"x_max":544,"ha":558,"o":"m 418 757 q 349 743 391 748 q 228 735 307 738 q 137 693 168 720 q 107 628 107 666 q 139 559 107 584 q 229 534 172 534 q 367 575 316 534 q 418 688 418 617 l 418 757 m 422 567 q 330 503 380 524 q 222 482 280 482 q 91 521 139 482 q 43 627 43 561 q 65 702 43 670 q 129 753 87 734 q 293 781 178 773 q 323 783 313 783 q 343 788 330 785 q 419 849 419 802 q 388 933 419 908 q 285 959 357 959 q 173 930 211 959 q 132 847 135 902 l 70 847 q 129 967 72 923 q 284 1011 187 1011 q 431 972 381 1011 q 482 859 482 934 l 482 582 q 490 544 482 551 q 520 537 498 537 q 532 537 527 537 q 544 537 538 537 l 544 495 q 523 491 533 492 q 498 490 513 490 q 441 507 460 490 q 422 558 422 524 l 422 567 "},"Œ":{"x_min":69,"x_max":1486,"ha":1544,"o":"m 815 194 l 815 801 q 690 908 760 872 q 532 944 619 944 q 264 823 364 944 q 164 499 164 703 q 263 174 164 293 q 531 55 362 55 q 687 89 617 55 q 815 194 757 123 m 816 105 q 681 6 754 38 q 520 -26 608 -26 q 192 116 315 -26 q 69 498 69 258 q 192 882 69 739 q 519 1025 315 1025 q 686 992 614 1025 q 816 891 758 960 l 816 999 l 1469 999 l 1469 917 l 907 917 l 907 552 l 1419 552 l 1419 473 l 907 473 l 907 82 l 1486 82 l 1486 0 l 816 0 l 816 105 "},"T":{"x_min":12,"x_max":726,"ha":739,"o":"m 322 0 l 322 917 l 12 917 l 12 999 l 726 999 l 726 917 l 416 917 l 416 0 l 322 0 "},"š":{"x_min":62,"x_max":618,"ha":682,"o":"m 62 224 l 145 224 q 201 103 148 149 q 338 57 255 57 q 481 92 429 57 q 533 189 533 128 q 341 322 533 276 l 337 323 q 130 405 183 360 q 78 530 78 450 q 146 681 78 623 q 326 739 215 739 q 519 678 447 739 q 599 510 591 617 l 514 510 q 459 624 508 583 q 324 665 409 665 q 207 631 251 665 q 163 541 163 597 q 359 399 163 445 q 398 390 385 393 q 569 314 521 360 q 618 186 618 269 q 542 37 618 95 q 343 -20 466 -20 q 141 46 217 -20 q 62 224 65 112 m 155 1051 l 217 1051 l 342 872 l 466 1051 l 529 1051 l 393 814 l 290 814 l 155 1051 "},"Þ":{"x_min":111,"x_max":787,"ha":839,"o":"m 203 335 l 416 335 q 628 382 564 335 q 693 538 693 430 q 635 687 693 639 q 455 735 577 735 l 203 735 l 203 335 m 111 0 l 111 999 l 203 999 l 203 817 l 459 817 q 705 746 623 817 q 787 536 787 675 q 695 322 787 392 q 415 252 603 252 l 203 252 l 203 0 l 111 0 "},"j":{"x_min":13,"x_max":209,"ha":302,"o":"m 126 874 l 126 999 l 209 999 l 209 874 l 126 874 m 13 -290 l 13 -218 q 26 -219 20 -219 q 45 -220 33 -220 q 108 -200 91 -220 q 126 -131 126 -181 l 126 721 l 209 721 l 209 -140 q 174 -259 209 -222 q 64 -296 140 -296 q 24 -291 53 -296 q 13 -290 17 -291 "},"1":{"x_min":129,"x_max":461,"ha":739,"o":"m 371 0 l 371 774 q 283 732 338 745 q 143 719 228 719 l 129 719 l 129 779 l 135 779 q 315 825 256 779 q 380 970 374 871 l 461 970 l 461 0 l 371 0 "},"›":{"x_min":66,"x_max":263,"ha":317,"o":"m 66 164 l 66 254 l 207 363 l 66 474 l 66 565 l 263 415 l 263 312 l 66 164 "},"<":{"x_min":179,"x_max":978,"ha":1157,"o":"m 978 700 l 269 413 l 978 125 l 978 66 l 179 392 l 179 434 l 978 762 l 978 700 "},"t":{"x_min":20.953125,"x_max":336,"ha":376,"o":"m 202 928 l 202 721 l 336 721 l 336 653 l 202 653 l 202 127 q 213 66 202 81 q 255 52 225 52 q 284 54 267 52 q 335 64 300 56 l 336 -2 q 280 -14 305 -10 q 232 -18 255 -18 q 144 13 170 -18 q 119 127 119 45 l 119 653 l 20 653 l 20 721 l 119 721 l 119 928 l 202 928 "},"¬":{"x_min":172,"x_max":984,"ha":1157,"o":"m 984 581 l 984 241 l 931 241 l 931 525 l 172 525 l 172 581 l 984 581 "},"ù":{"x_min":90,"x_max":657,"ha":751,"o":"m 657 721 l 657 0 l 576 0 l 576 115 q 475 13 535 46 q 335 -20 416 -20 q 151 44 212 -20 q 90 236 90 108 l 90 721 l 173 721 l 173 255 q 213 102 173 147 q 349 57 254 57 q 513 120 453 57 q 574 294 574 183 l 574 721 l 657 721 m 398 814 l 216 1051 l 319 1051 l 461 814 l 398 814 "},"ï":{"x_min":-14,"x_max":300,"ha":286,"o":"m 102 0 l 102 721 l 185 721 l 185 0 l 102 0 m 204 867 l 204 977 l 300 977 l 300 867 l 204 867 m -14 867 l -14 977 l 82 977 l 82 867 l -14 867 "},"Ò":{"x_min":68,"x_max":984,"ha":1051,"o":"m 163 498 q 260 173 163 293 q 525 54 358 54 q 791 173 693 54 q 890 498 890 292 q 791 824 890 704 q 525 945 693 945 q 261 823 360 945 q 163 498 163 702 m 68 498 q 191 883 68 741 q 525 1025 314 1025 q 860 883 736 1025 q 984 498 984 741 q 860 113 984 255 q 525 -28 736 -28 q 191 113 314 -28 q 68 498 68 255 m 548 1099 l 366 1336 l 469 1336 l 611 1099 l 548 1099 "},"&":{"x_min":75,"x_max":910,"ha":917,"o":"m 359 519 q 215 410 262 472 q 169 270 169 349 q 227 113 169 173 q 379 54 285 54 q 528 85 464 54 q 641 184 592 117 l 359 519 m 393 616 q 510 700 473 657 q 547 797 547 743 q 512 885 547 853 q 417 918 477 918 q 325 886 358 918 q 293 798 293 855 q 316 717 293 760 q 393 616 339 674 m 797 0 l 696 119 q 561 9 641 46 q 378 -28 481 -28 q 159 53 244 -28 q 75 260 75 134 q 134 446 75 366 q 311 577 193 525 q 229 693 254 640 q 204 800 204 746 q 264 942 204 885 q 418 999 325 999 q 575 944 517 999 q 633 798 633 889 q 588 669 633 725 q 441 556 544 612 l 688 265 q 713 348 705 303 q 722 447 722 393 l 808 447 q 791 309 806 372 q 745 194 776 247 l 910 0 l 797 0 "},"":{"x_min":-14,"x_max":699,"ha":739,"o":"m 605 308 l 699 308 q 600 58 678 144 q 394 -28 522 -28 q 180 72 261 -28 q 82 357 98 172 l -7 357 l 19 418 l 78 418 l 78 525 l -14 525 l 13 586 l 82 586 q 179 870 96 769 q 396 971 261 971 q 597 891 519 971 q 692 668 675 811 l 598 668 q 529 832 584 771 q 392 893 474 893 q 241 815 296 893 q 174 586 186 737 l 524 586 l 497 525 l 172 525 l 172 418 l 450 418 l 424 357 l 174 357 q 243 128 186 207 q 392 50 299 50 q 533 116 479 50 q 605 308 587 182 "},"˝":{"x_min":228,"x_max":591,"ha":694,"o":"m 387 814 l 500 1051 l 591 1051 l 437 814 l 387 814 m 228 814 l 328 1051 l 419 1051 l 278 814 l 228 814 "},"I":{"x_min":117,"x_max":211,"ha":329,"o":"m 117 0 l 117 999 l 211 999 l 211 0 l 117 0 "},"G":{"x_min":69,"x_max":949,"ha":1040,"o":"m 875 0 l 866 176 q 727 26 819 80 q 517 -28 635 -28 q 188 113 308 -28 q 69 501 69 255 q 191 884 69 744 q 522 1025 313 1025 q 805 941 696 1025 q 936 708 914 858 l 842 708 q 736 881 820 818 q 523 945 651 945 q 256 830 350 945 q 163 502 163 715 q 257 177 163 297 q 513 57 351 57 q 770 154 678 57 q 862 426 862 251 l 862 431 l 532 431 l 532 513 l 949 513 l 949 0 l 875 0 "},"`":{"x_min":187,"x_max":432,"ha":694,"o":"m 369 814 l 187 1051 l 290 1051 l 432 814 l 369 814 "},"·":{"x_min":129,"x_max":240,"ha":370,"o":"m 129 471 q 145 511 129 495 q 184 527 161 527 q 223 510 207 527 q 240 471 240 494 q 223 432 240 449 q 184 416 207 416 q 145 432 162 416 q 129 471 129 449 "},"¿":{"x_min":46,"x_max":644,"ha":682,"o":"m 308 874 l 308 999 l 400 999 l 400 874 l 308 874 m 400 753 l 400 669 q 381 574 400 615 q 299 469 362 533 q 252 423 283 452 q 142 234 142 315 q 193 101 142 149 q 336 53 245 53 q 497 110 442 53 q 554 281 551 168 l 644 281 q 559 51 639 130 q 331 -28 479 -28 q 123 40 200 -28 q 46 226 46 109 q 70 340 46 289 q 148 440 94 391 q 175 465 157 449 q 308 678 308 587 l 308 753 l 400 753 "},"ý":{"x_min":0,"x_max":636,"ha":647,"o":"m 316 -140 q 241 -260 285 -224 q 123 -296 196 -296 q 92 -294 105 -296 q 65 -288 78 -292 l 65 -213 q 101 -218 88 -216 q 122 -220 114 -220 q 193 -196 167 -220 q 247 -98 220 -172 l 280 -7 l 0 721 l 88 721 l 322 105 l 549 721 l 636 721 l 316 -140 m 300 814 l 238 814 l 379 1051 l 483 1051 l 300 814 "},"º":{"x_min":43,"x_max":541,"ha":582,"o":"m 107 745 q 155 588 107 644 q 290 532 203 532 q 426 587 378 532 q 474 745 474 642 q 426 903 474 848 q 290 959 378 959 q 154 903 202 959 q 107 745 107 847 m 43 745 q 107 941 43 872 q 290 1011 172 1011 q 475 941 410 1011 q 541 745 541 871 q 475 550 541 619 q 290 482 409 482 q 107 550 172 482 q 43 745 43 619 "},"∞":{"x_min":161,"x_max":995,"ha":1157,"o":"m 602 377 q 687 273 638 307 q 796 239 735 239 q 916 291 869 239 q 963 426 963 344 q 919 559 963 507 q 811 612 876 612 q 704 559 752 612 q 602 377 657 507 m 554 454 q 471 557 519 523 q 360 592 422 592 q 240 539 286 592 q 194 405 194 487 q 237 273 194 325 q 345 221 280 221 q 452 272 404 221 q 554 454 499 323 m 566 483 q 665 623 611 577 q 785 669 719 669 q 934 597 873 669 q 995 417 995 525 q 940 236 995 305 q 798 168 886 168 q 686 209 734 168 q 589 345 637 250 q 488 207 541 251 q 371 164 436 164 q 222 236 283 164 q 161 414 161 308 q 215 596 161 527 q 357 665 269 665 q 474 621 423 665 q 566 483 524 577 "},";":{"x_min":154,"x_max":248,"ha":401,"o":"m 154 584 l 154 707 l 248 707 l 248 584 l 154 584 m 154 -194 l 154 -140 q 187 -103 177 -124 q 198 -49 198 -82 l 198 0 l 154 0 l 154 123 l 248 123 l 248 -42 q 226 -138 248 -104 q 154 -194 204 -173 "},"6":{"x_min":56,"x_max":689,"ha":739,"o":"m 170 300 q 227 117 170 185 q 382 49 285 49 q 540 109 485 49 q 595 286 595 170 q 540 474 595 407 q 385 541 485 541 q 230 472 291 541 q 170 300 170 404 m 148 465 q 247 576 184 538 q 397 614 311 614 q 610 526 531 614 q 689 290 689 438 q 608 57 689 143 q 388 -28 527 -28 q 141 88 226 -28 q 56 425 56 204 q 147 832 56 691 q 409 973 238 973 q 594 906 522 973 q 677 725 666 839 l 592 725 q 532 851 581 806 q 404 896 483 896 q 218 786 283 896 q 148 465 154 677 "},"n":{"x_min":93,"x_max":659,"ha":749,"o":"m 93 0 l 93 721 l 173 721 l 173 605 q 274 705 214 672 q 412 739 334 739 q 543 712 487 739 q 629 637 599 686 q 652 576 645 612 q 659 459 659 541 l 659 438 l 659 0 l 573 0 l 573 446 q 533 618 573 573 q 396 664 494 664 q 236 599 295 664 q 178 425 178 535 l 178 0 l 93 0 "},"¤":{"x_min":-14,"x_max":699,"ha":739,"o":"m 605 308 l 699 308 q 600 58 678 144 q 394 -28 522 -28 q 180 72 261 -28 q 82 357 98 172 l -7 357 l 19 418 l 78 418 l 78 525 l -14 525 l 13 586 l 82 586 q 179 870 96 769 q 396 971 261 971 q 597 891 519 971 q 692 668 675 811 l 598 668 q 529 832 584 771 q 392 893 474 893 q 241 815 296 893 q 174 586 186 737 l 524 586 l 497 525 l 172 525 l 172 418 l 450 418 l 424 357 l 174 357 q 243 128 186 207 q 392 50 299 50 q 533 116 479 50 q 605 308 587 182 "},"∂":{"x_min":92,"x_max":610,"ha":694,"o":"m 509 392 q 520 490 516 439 q 524 599 524 541 q 498 779 524 720 q 419 839 472 839 q 351 789 388 839 q 277 739 314 739 q 245 751 258 739 q 231 783 231 764 q 273 852 231 823 q 373 882 314 882 q 546 782 482 882 q 610 510 610 682 q 520 132 610 283 q 301 -18 431 -18 q 149 53 207 -18 q 92 243 92 124 q 164 444 92 360 q 339 528 237 528 q 446 494 405 528 q 509 392 488 461 m 483 311 q 451 440 483 396 q 358 485 419 485 q 228 400 278 485 q 179 176 179 315 q 211 55 179 97 q 304 13 243 13 q 432 97 381 13 q 483 311 483 182 "},"p":{"x_min":96,"x_max":752,"ha":806,"o":"m 176 359 q 241 135 176 216 q 419 54 305 54 q 601 133 538 54 q 665 359 665 212 q 601 585 665 505 q 419 665 537 665 q 240 585 303 665 q 176 359 176 506 m 96 -290 l 96 721 l 181 721 l 181 591 q 283 702 221 666 q 432 739 345 739 q 666 637 581 739 q 752 359 752 536 q 665 81 752 182 q 428 -20 579 -20 q 284 15 345 -20 q 181 124 223 51 l 181 -290 l 96 -290 "},"‡":{"x_min":48,"x_max":647,"ha":694,"o":"m 303 -147 l 303 144 l 48 144 l 48 217 l 303 217 l 303 635 l 48 635 l 48 707 l 303 707 l 303 999 l 385 999 l 385 707 l 647 707 l 647 635 l 385 635 l 385 217 l 647 217 l 647 144 l 385 144 l 385 -147 l 303 -147 "},"√":{"x_min":36,"x_max":857,"ha":857,"o":"m 857 1102 l 857 1061 l 769 1061 l 365 -28 l 344 -28 l 120 587 l 46 560 l 36 594 l 191 648 l 380 133 l 740 1102 l 857 1102 "},"S":{"x_min":63,"x_max":777,"ha":842,"o":"m 63 302 l 155 302 q 229 119 156 184 q 435 54 302 54 q 618 106 551 54 q 685 251 685 159 q 638 381 685 336 q 452 462 591 426 l 357 486 q 145 586 204 525 q 87 756 87 646 q 175 951 87 878 q 412 1025 264 1025 q 658 944 570 1025 q 749 721 746 864 l 656 721 q 589 885 653 827 q 409 944 525 944 q 239 894 299 944 q 179 754 179 844 q 218 646 179 685 q 348 583 257 606 l 464 554 q 707 444 637 510 q 777 260 777 377 q 685 49 777 126 q 433 -28 593 -28 q 159 55 255 -28 q 63 295 63 139 l 63 302 "},"/":{"x_min":-18,"x_max":423,"ha":406,"o":"m 355 1025 l 423 1025 l 50 -116 l -18 -116 l 355 1025 "},"y":{"x_min":0,"x_max":636,"ha":647,"o":"m 316 -140 q 241 -260 285 -224 q 123 -296 196 -296 q 92 -294 105 -296 q 65 -288 78 -292 l 65 -213 q 101 -218 88 -216 q 122 -220 114 -220 q 193 -196 167 -220 q 247 -98 220 -172 l 280 -7 l 0 721 l 88 721 l 322 105 l 549 721 l 636 721 l 316 -140 "},"≈":{"x_min":121,"x_max":1038,"ha":1157,"o":"m 1038 328 q 900 253 966 278 q 775 229 835 229 q 575 276 703 229 q 383 324 446 324 q 267 300 327 324 q 121 215 207 276 l 121 278 q 257 352 192 328 q 383 377 322 377 q 583 330 455 377 q 775 283 712 283 q 891 307 831 283 q 1038 391 951 331 l 1038 328 m 1038 548 q 902 474 966 498 q 775 450 837 450 q 575 497 703 450 q 383 544 446 544 q 267 519 327 544 q 121 435 207 495 l 121 497 q 258 573 192 548 q 383 598 323 598 q 583 550 455 598 q 775 502 712 502 q 889 526 830 502 q 1038 611 949 550 l 1038 548 "},"g":{"x_min":58,"x_max":711,"ha":804,"o":"m 147 359 q 211 134 147 216 q 389 53 276 53 q 570 133 505 53 q 634 359 634 214 q 570 585 634 505 q 389 665 506 665 q 210 585 273 665 q 147 359 147 506 m 711 721 l 711 37 q 624 -211 711 -127 q 369 -296 537 -296 q 165 -239 242 -296 q 80 -85 87 -182 l 165 -85 q 224 -185 172 -150 q 367 -221 276 -221 q 563 -156 498 -221 q 629 34 629 -92 l 629 123 q 522 15 585 51 q 377 -20 459 -20 q 143 81 229 -20 q 58 359 58 182 q 144 636 58 534 q 377 739 231 739 q 523 703 461 739 q 628 595 585 667 l 628 721 l 711 721 "},"²":{"x_min":30,"x_max":448,"ha":488,"o":"m 30 378 l 30 396 q 66 506 30 457 q 186 604 103 555 q 244 634 207 615 q 347 699 325 677 q 377 740 368 719 q 386 790 386 762 q 350 880 386 847 q 252 913 315 913 q 144 875 181 913 q 106 767 107 838 l 46 767 q 102 909 48 859 q 253 960 156 960 q 395 914 343 960 q 448 791 448 869 q 435 726 448 754 q 396 672 422 697 q 276 596 367 642 q 227 570 244 579 q 125 499 157 533 q 90 425 94 465 l 443 425 l 443 378 l 30 378 "},"ë":{"x_min":57,"x_max":681,"ha":736,"o":"m 142 344 l 142 339 q 205 129 142 207 q 376 51 269 51 q 518 96 461 51 q 587 222 575 142 l 670 222 q 575 46 657 112 q 371 -20 494 -20 q 140 79 223 -20 q 57 356 57 179 q 140 637 57 536 q 373 739 224 739 q 599 642 518 739 q 681 371 681 545 l 681 344 l 142 344 m 143 411 l 595 410 q 530 597 589 529 q 372 666 470 666 q 211 596 273 666 q 143 411 149 527 m 429 867 l 429 977 l 525 977 l 525 867 l 429 867 m 211 867 l 211 977 l 307 977 l 307 867 l 211 867 "},"–":{"x_min":0,"x_max":694,"ha":694,"o":"m 0 334 l 0 396 l 694 396 l 694 334 l 0 334 "},"ƒ":{"x_min":-16,"x_max":678,"ha":739,"o":"m 320 542 l 166 542 l 166 615 l 333 615 l 354 715 q 439 949 392 889 q 575 1010 487 1010 q 624 1003 599 1010 q 678 984 648 997 l 664 913 q 621 927 642 922 q 579 932 600 932 q 500 894 527 932 q 443 714 472 856 l 424 615 l 578 615 l 578 542 l 409 542 l 309 19 q 226 -209 276 -145 q 87 -273 177 -273 q 36 -267 61 -273 q -16 -249 11 -261 l -1 -176 q 46 -191 26 -186 q 82 -197 66 -197 q 163 -157 135 -197 q 219 22 191 -117 l 320 542 "},"J":{"x_min":31,"x_max":563,"ha":668,"o":"m 31 307 l 123 307 l 123 242 q 164 100 123 146 q 290 54 205 54 q 429 102 387 54 q 471 263 471 150 l 471 999 l 563 999 l 563 242 q 492 41 563 111 q 288 -28 421 -28 q 95 38 160 -28 q 31 234 31 104 l 31 307 "},"Ã":{"x_min":-7,"x_max":861,"ha":856,"o":"m 232 387 l 620 387 l 426 901 l 232 387 m -7 0 l 372 999 l 482 999 l 861 0 l 764 0 l 651 307 l 203 307 l 88 0 l -7 0 m 639 1278 q 588 1185 621 1217 q 509 1154 555 1154 q 489 1156 500 1154 q 465 1161 478 1158 l 400 1182 q 382 1186 391 1185 q 363 1188 373 1188 q 327 1175 343 1188 q 301 1140 311 1163 l 247 1140 q 295 1231 261 1199 q 379 1263 329 1263 q 398 1261 390 1263 q 415 1257 407 1260 l 480 1235 q 499 1230 489 1232 q 518 1228 508 1228 q 556 1240 540 1228 q 583 1278 572 1252 l 639 1278 "},"©":{"x_min":83,"x_max":1073,"ha":1157,"o":"m 733 622 q 678 708 719 677 q 578 739 638 739 q 445 672 493 739 q 398 487 398 606 q 446 306 398 372 q 578 240 495 240 q 684 275 640 240 q 742 370 729 311 l 811 370 q 737 234 803 287 q 574 182 671 182 q 388 265 457 182 q 319 491 319 349 q 391 713 319 630 q 582 797 464 797 q 733 748 672 797 q 804 622 795 699 l 733 622 m 1024 488 q 990 658 1024 578 q 895 802 957 739 q 749 900 830 867 q 577 934 668 934 q 406 900 487 934 q 264 805 326 867 q 166 657 200 739 q 132 488 132 576 q 165 319 132 400 q 263 174 199 238 q 408 77 327 111 q 577 43 489 43 q 747 77 665 43 q 895 176 830 112 q 991 318 958 238 q 1024 488 1024 397 m 577 984 q 768 946 678 984 q 929 838 859 909 q 1036 678 999 769 q 1073 488 1073 588 q 1036 298 1073 386 q 929 141 1000 210 q 766 31 857 69 q 577 -7 674 -7 q 389 30 479 -7 q 228 140 299 68 q 120 300 157 210 q 83 488 83 389 q 120 677 83 586 q 230 840 158 768 q 387 947 298 910 q 577 984 476 984 "},"˘":{"x_min":161,"x_max":533,"ha":694,"o":"m 161 1020 l 215 1020 q 250 945 219 969 q 347 922 282 922 q 442 944 412 922 q 478 1020 472 967 l 533 1020 q 482 885 526 928 q 347 843 437 843 q 212 885 257 843 q 161 1020 167 928 "},"≥":{"x_min":179,"x_max":978,"ha":1157,"o":"m 978 87 l 978 33 l 179 33 l 179 87 l 978 87 m 978 520 l 978 472 l 179 198 l 179 257 l 886 496 l 179 734 l 179 794 l 978 520 "},"D":{"x_min":111,"x_max":894,"ha":968,"o":"m 203 82 l 395 82 q 561 90 508 82 q 647 119 613 98 q 760 258 723 164 q 798 498 798 351 q 762 732 798 638 q 655 872 726 825 q 565 906 618 896 q 385 917 512 917 l 364 917 l 203 917 l 203 82 m 345 999 l 413 999 q 598 986 536 999 q 704 944 660 973 q 845 772 797 886 q 894 501 894 659 q 841 214 894 330 q 684 42 788 99 q 578 9 641 19 q 385 0 515 0 l 111 0 l 111 999 l 345 999 "},"ÿ":{"x_min":0,"x_max":636,"ha":647,"o":"m 316 -140 q 241 -260 285 -224 q 123 -296 196 -296 q 92 -294 105 -296 q 65 -288 78 -292 l 65 -213 q 101 -218 88 -216 q 122 -220 114 -220 q 193 -196 167 -220 q 247 -98 220 -172 l 280 -7 l 0 721 l 88 721 l 322 105 l 549 721 l 636 721 l 316 -140 m 384 867 l 384 977 l 480 977 l 480 867 l 384 867 m 166 867 l 166 977 l 262 977 l 262 867 l 166 867 "},"ł":{"x_min":-18.3125,"x_max":305.03125,"ha":286,"o":"m 102 0 l 102 444 l 19 384 l -18 436 l 102 523 l 102 999 l 185 999 l 185 573 l 267 634 l 305 583 l 185 494 l 185 0 l 102 0 "},"Ł":{"x_min":-21.015625,"x_max":715,"ha":722,"o":"m 111 0 l 111 431 l 16 368 l -21 423 l 111 515 l 111 999 l 205 999 l 205 569 l 442 735 l 480 678 l 205 486 l 205 82 l 715 82 l 715 0 l 111 0 "},"$":{"x_min":40,"x_max":700,"ha":739,"o":"m 406 49 q 560 103 506 55 q 614 236 614 152 q 573 357 614 312 q 443 425 533 402 l 406 434 l 406 49 m 342 541 l 342 894 q 197 842 248 888 q 147 715 147 796 q 181 612 147 649 q 304 551 216 574 l 342 541 m 40 284 l 125 284 q 181 119 127 178 q 342 49 236 60 l 342 450 l 279 467 q 114 557 164 501 q 64 706 64 613 q 136 895 64 826 q 342 971 208 963 l 342 1054 l 406 1054 l 406 971 q 596 900 526 966 q 667 723 665 835 l 585 723 q 534 846 580 802 q 406 893 488 890 l 406 523 l 440 515 q 639 414 578 478 q 700 245 700 351 q 622 50 700 123 q 406 -28 544 -21 l 406 -137 l 342 -137 l 342 -28 q 116 61 192 -15 q 40 278 40 138 l 40 284 "},"w":{"x_min":0,"x_max":961,"ha":961,"o":"m 226 0 l 0 721 l 84 721 l 270 117 l 436 721 l 528 721 l 691 118 l 876 721 l 961 721 l 734 0 l 645 0 l 479 602 l 314 0 l 226 0 "},"\\":{"x_min":-18,"x_max":423,"ha":406,"o":"m 355 -116 l -18 1025 l 50 1025 l 423 -116 l 355 -116 "},"∫":{"x_min":31,"x_max":612,"ha":643,"o":"m 272 391 q 330 888 272 729 q 512 1048 389 1048 q 584 1024 556 1048 q 612 963 612 1000 q 593 914 612 932 q 542 897 574 897 q 474 940 490 897 q 451 984 457 984 q 388 876 406 984 q 371 410 371 768 q 313 -93 371 65 q 131 -252 255 -252 q 59 -228 87 -252 q 31 -171 31 -205 q 50 -118 31 -138 q 102 -99 69 -99 q 139 -108 124 -99 q 167 -137 155 -117 q 175 -167 172 -146 q 192 -188 178 -188 q 254 -76 236 -188 q 272 391 272 35 "},"Ì":{"x_min":5,"x_max":250,"ha":329,"o":"m 117 0 l 117 999 l 211 999 l 211 0 l 117 0 m 187 1099 l 5 1336 l 108 1336 l 250 1099 l 187 1099 "},"Ç":{"x_min":68,"x_max":901,"ha":966,"o":"m 811 326 l 901 326 q 784 65 889 159 q 502 -28 678 -28 q 184 113 301 -28 q 68 501 68 254 q 185 885 68 745 q 504 1025 303 1025 q 778 938 674 1025 q 891 707 883 852 l 801 707 q 710 880 789 817 q 505 944 631 944 q 253 828 343 944 q 163 502 163 712 q 254 172 163 291 q 508 53 346 53 q 721 125 640 53 q 811 326 801 197 m 341 -284 l 341 -231 q 433 -249 393 -243 q 502 -255 473 -255 q 568 -239 545 -255 q 591 -194 591 -223 q 567 -140 591 -157 q 492 -123 543 -123 q 473 -123 479 -123 q 461 -124 466 -123 l 460 0 l 505 0 l 505 -75 l 514 -75 q 626 -104 587 -75 q 666 -191 666 -134 q 626 -280 666 -249 q 513 -311 587 -311 q 431 -304 473 -311 q 341 -284 389 -298 "},"C":{"x_min":68,"x_max":901,"ha":966,"o":"m 811 326 l 901 326 q 784 65 889 159 q 502 -28 678 -28 q 184 113 301 -28 q 68 501 68 254 q 185 885 68 745 q 504 1025 303 1025 q 778 938 674 1025 q 891 707 883 852 l 801 707 q 710 880 789 817 q 505 944 631 944 q 253 828 343 944 q 163 502 163 712 q 254 172 163 291 q 508 53 346 53 q 721 125 640 53 q 811 326 801 197 "},"!":{"x_min":171,"x_max":263,"ha":433,"o":"m 190 244 l 171 636 l 171 999 l 263 999 l 263 636 l 244 244 l 190 244 m 171 0 l 171 123 l 263 123 l 263 0 l 171 0 "},"ç":{"x_min":57,"x_max":672,"ha":717,"o":"m 589 249 l 672 249 q 580 53 660 124 q 372 -18 500 -18 q 141 82 225 -18 q 57 355 57 182 q 142 636 57 534 q 377 739 228 739 q 577 670 499 739 q 662 491 655 602 l 582 491 q 515 617 571 569 q 377 665 459 665 q 206 583 269 665 q 143 362 143 502 q 207 136 143 219 q 379 53 271 53 q 519 105 463 53 q 589 249 576 157 m 216 -284 l 216 -231 q 308 -249 268 -243 q 377 -255 348 -255 q 443 -239 420 -255 q 466 -194 466 -223 q 442 -140 466 -157 q 367 -123 418 -123 q 348 -123 354 -123 q 336 -124 341 -123 l 335 0 l 380 0 l 380 -75 l 389 -75 q 501 -104 462 -75 q 541 -191 541 -134 q 501 -280 541 -249 q 388 -311 462 -311 q 306 -304 348 -311 q 216 -284 264 -298 "},"È":{"x_min":111,"x_max":782,"ha":840,"o":"m 111 0 l 111 999 l 765 999 l 765 917 l 203 917 l 203 552 l 716 552 l 716 473 l 203 473 l 203 82 l 782 82 l 782 0 l 111 0 m 469 1099 l 287 1336 l 390 1336 l 532 1099 l 469 1099 "},"X":{"x_min":16,"x_max":801,"ha":815,"o":"m 16 0 l 350 514 l 27 999 l 135 999 l 403 589 l 668 999 l 776 999 l 455 511 l 801 0 l 691 0 l 403 434 l 123 0 l 16 0 "},"ô":{"x_min":57,"x_max":720,"ha":775,"o":"m 143 359 q 207 134 143 214 q 387 55 271 55 q 569 134 505 55 q 633 359 633 213 q 569 585 633 505 q 387 665 505 665 q 207 585 271 665 q 143 359 143 505 m 57 359 q 143 639 57 540 q 387 739 230 739 q 632 639 545 739 q 720 359 720 540 q 633 80 720 179 q 387 -18 546 -18 q 143 80 230 -18 q 57 359 57 179 m 200 814 l 335 1051 l 438 1051 l 574 814 l 511 814 l 387 992 l 262 814 l 200 814 "},"đ":{"x_min":58,"x_max":807,"ha":807,"o":"m 147 359 q 210 134 147 214 q 389 54 274 54 q 571 133 507 54 q 634 359 634 212 q 570 584 634 504 q 389 665 506 665 q 210 585 273 665 q 147 359 147 506 m 711 999 l 711 900 l 807 900 l 807 836 l 711 836 l 711 0 l 628 0 l 628 121 q 522 15 586 51 q 373 -20 458 -20 q 143 82 228 -20 q 58 359 58 184 q 144 636 58 534 q 378 739 231 739 q 526 703 463 739 q 628 595 589 667 l 628 836 l 389 836 l 389 900 l 628 900 l 628 999 l 711 999 "},"}":{"x_min":120,"x_max":574,"ha":694,"o":"m 369 746 l 369 583 q 408 432 369 476 q 543 388 447 388 q 558 389 548 388 q 574 390 567 390 l 574 330 q 558 330 567 330 q 543 331 548 331 q 408 287 447 331 q 369 137 369 244 l 369 -25 q 322 -229 369 -178 q 149 -280 276 -280 l 120 -280 l 120 -220 l 146 -220 q 268 -185 237 -220 q 300 -42 300 -151 l 300 121 q 329 288 300 239 q 432 360 358 338 q 329 431 358 381 q 300 598 300 480 l 300 762 q 268 907 300 872 q 145 942 236 942 l 120 942 l 120 1002 l 149 1002 q 322 951 276 1002 q 369 746 369 900 "},"â":{"x_min":57,"x_max":725,"ha":745,"o":"m 557 377 q 471 357 523 365 q 304 344 419 350 q 183 284 224 323 q 143 191 143 246 q 186 93 143 130 q 305 57 230 57 q 488 116 420 57 q 557 277 557 175 l 557 377 m 562 104 q 438 12 505 42 q 295 -18 372 -18 q 121 38 186 -18 q 57 190 57 95 q 86 298 57 252 q 172 371 116 344 q 387 411 236 400 q 431 414 416 413 q 455 419 440 416 q 558 508 558 440 q 516 628 558 592 q 379 665 474 665 q 230 624 282 665 q 175 505 179 584 l 93 505 q 172 676 95 613 q 379 739 248 739 q 575 683 508 739 q 643 520 643 627 l 643 127 q 653 71 643 82 q 694 61 664 61 q 710 61 703 61 q 725 62 717 61 l 725 0 q 693 -5 709 -3 q 665 -7 678 -7 q 588 18 613 -7 q 562 92 562 43 l 562 104 m 191 814 l 326 1051 l 429 1051 l 565 814 l 502 814 l 378 992 l 253 814 l 191 814 "},"ø":{"x_min":57,"x_max":720,"ha":775,"o":"m 219 124 q 293 72 250 89 q 388 55 335 55 q 570 134 506 55 q 634 359 634 213 q 621 473 634 424 q 585 558 609 522 l 219 124 m 190 157 l 557 597 q 482 648 523 631 q 390 665 441 665 q 207 585 271 665 q 143 358 143 506 q 154 247 143 298 q 190 157 166 197 m 62 5 l 134 92 q 75 213 94 145 q 57 373 57 281 q 147 639 57 540 q 388 739 237 739 q 513 719 459 739 q 611 660 567 700 l 679 741 l 714 712 l 642 626 q 701 511 682 576 q 720 362 720 447 q 633 80 720 179 q 388 -18 547 -18 q 263 1 319 -18 q 165 59 207 20 l 96 -23 l 62 5 "},"Ä":{"x_min":-7,"x_max":861,"ha":856,"o":"m 232 387 l 620 387 l 426 901 l 232 387 m -7 0 l 372 999 l 482 999 l 861 0 l 764 0 l 651 307 l 203 307 l 88 0 l -7 0 m 504 1152 l 504 1262 l 600 1262 l 600 1152 l 504 1152 m 286 1152 l 286 1262 l 382 1262 l 382 1152 l 286 1152 "},"‰":{"x_min":52,"x_max":1641,"ha":1691,"o":"m 1262 230 q 1305 124 1262 167 q 1410 81 1348 81 q 1516 124 1472 81 q 1560 230 1560 168 q 1516 335 1560 292 q 1410 379 1473 379 q 1304 336 1347 379 q 1262 230 1262 293 m 1181 230 q 1247 393 1181 327 q 1410 460 1313 460 q 1574 393 1507 460 q 1641 230 1641 327 q 1573 67 1641 134 q 1410 0 1506 0 q 1247 66 1313 0 q 1181 230 1181 133 m 695 230 q 738 124 695 168 q 844 81 782 81 q 949 124 906 81 q 993 230 993 167 q 950 336 993 293 q 844 379 907 379 q 738 335 781 379 q 695 230 695 292 m 614 230 q 680 393 614 327 q 844 460 747 460 q 1007 393 941 460 q 1074 230 1074 327 q 1007 66 1074 133 q 844 0 941 0 q 681 67 748 0 q 614 230 614 134 m 216 -27 l 839 970 l 909 970 l 288 -27 l 216 -27 m 133 712 q 176 607 133 650 q 282 564 219 564 q 387 606 344 564 q 431 712 431 649 q 387 818 431 775 q 282 862 344 862 q 176 818 219 862 q 133 712 133 774 m 52 713 q 118 876 52 810 q 281 943 184 943 q 445 876 378 943 q 512 713 512 810 q 444 549 512 616 q 281 483 377 483 q 118 549 184 483 q 52 713 52 616 "},"N":{"x_min":111,"x_max":865,"ha":978,"o":"m 111 0 l 111 999 l 212 999 l 776 142 l 776 999 l 865 999 l 865 0 l 763 0 l 201 857 l 201 0 l 111 0 "},"—":{"x_min":0,"x_max":1389,"ha":1389,"o":"m 0 334 l 0 396 l 1389 396 l 1389 334 l 0 334 "},"2":{"x_min":46,"x_max":679,"ha":739,"o":"m 47 0 q 46 14 47 4 q 46 29 46 24 q 101 214 46 132 q 284 376 157 296 q 374 429 315 395 q 527 536 493 500 q 572 605 558 570 q 586 687 586 640 q 531 837 586 783 q 381 892 477 892 q 217 829 274 892 q 159 648 160 766 l 69 648 q 155 887 73 803 q 384 971 237 971 q 599 895 520 971 q 679 690 679 819 q 660 581 679 629 q 601 490 641 533 q 414 361 556 440 q 345 322 369 336 q 190 203 239 259 q 137 78 142 146 l 673 78 l 673 0 l 47 0 "},"ü":{"x_min":90,"x_max":657,"ha":751,"o":"m 657 721 l 657 0 l 576 0 l 576 115 q 475 13 535 46 q 335 -20 416 -20 q 151 44 212 -20 q 90 236 90 108 l 90 721 l 173 721 l 173 255 q 213 102 173 147 q 349 57 254 57 q 513 120 453 57 q 574 294 574 183 l 574 721 l 657 721 m 437 867 l 437 977 l 533 977 l 533 867 l 437 867 m 219 867 l 219 977 l 315 977 l 315 867 l 219 867 "},"":{"x_min":27.890625,"x_max":549,"ha":650,"o":"m 464 0 l 464 999 l 549 999 l 549 0 l 464 0 m 134 0 l 134 653 l 27 653 l 27 721 l 134 721 l 134 852 q 174 970 134 933 q 305 1008 215 1008 q 325 1007 314 1008 q 348 1003 335 1006 l 348 928 q 339 928 345 928 q 301 931 312 931 q 236 911 255 931 q 217 843 217 892 l 217 721 l 348 721 l 348 653 l 217 653 l 217 0 l 134 0 "},"Ó":{"x_min":68,"x_max":984,"ha":1051,"o":"m 163 498 q 260 173 163 293 q 525 54 358 54 q 791 173 693 54 q 890 498 890 292 q 791 824 890 704 q 525 945 693 945 q 261 823 360 945 q 163 498 163 702 m 68 498 q 191 883 68 741 q 525 1025 314 1025 q 860 883 736 1025 q 984 498 984 741 q 860 113 984 255 q 525 -28 736 -28 q 191 113 314 -28 q 68 498 68 255 m 503 1099 l 441 1099 l 582 1336 l 686 1336 l 503 1099 "},"˜":{"x_min":151,"x_max":543,"ha":694,"o":"m 543 993 q 492 900 525 932 q 413 869 459 869 q 393 871 404 869 q 369 876 382 873 l 304 897 q 286 901 295 900 q 267 903 277 903 q 231 890 247 903 q 205 855 215 878 l 151 855 q 199 946 165 914 q 283 978 233 978 q 302 976 294 978 q 319 972 311 975 l 384 950 q 403 945 393 947 q 422 943 412 943 q 460 955 444 943 q 487 993 476 967 l 543 993 "},"ˇ":{"x_min":160,"x_max":534,"ha":694,"o":"m 160 1051 l 222 1051 l 347 872 l 471 1051 l 534 1051 l 398 814 l 295 814 l 160 1051 "},"Ÿ":{"x_min":-10,"x_max":788,"ha":778,"o":"m 343 0 l 343 438 l -10 999 l 95 999 l 388 526 l 682 999 l 788 999 l 435 438 l 435 0 l 343 0 m 449 1152 l 449 1262 l 545 1262 l 545 1152 l 449 1152 m 231 1152 l 231 1262 l 327 1262 l 327 1152 l 231 1152 "},"€":{"x_min":-14,"x_max":699,"ha":739,"o":"m 605 308 l 699 308 q 600 58 678 144 q 394 -28 522 -28 q 180 72 261 -28 q 82 357 98 172 l -7 357 l 19 418 l 78 418 l 78 525 l -14 525 l 13 586 l 82 586 q 179 870 96 769 q 396 971 261 971 q 597 891 519 971 q 692 668 675 811 l 598 668 q 529 832 584 771 q 392 893 474 893 q 241 815 296 893 q 174 586 186 737 l 524 586 l 497 525 l 172 525 l 172 418 l 450 418 l 424 357 l 174 357 q 243 128 186 207 q 392 50 299 50 q 533 116 479 50 q 605 308 587 182 "},"ß":{"x_min":93,"x_max":646,"ha":701,"o":"m 93 0 l 93 758 q 155 947 93 883 q 343 1011 218 1011 q 531 944 464 1011 q 598 758 598 878 q 571 637 598 687 q 492 561 544 587 q 608 458 570 525 q 646 292 646 392 q 575 67 646 151 q 384 -16 504 -16 q 357 -14 374 -16 q 311 -8 340 -12 l 311 61 q 329 59 320 60 q 356 59 339 59 q 507 118 455 59 q 560 288 560 177 q 496 465 560 406 q 307 525 433 525 l 307 589 l 326 589 q 469 630 423 589 q 515 762 515 672 q 471 896 515 850 q 343 943 427 943 q 214 897 252 943 q 176 740 176 851 l 176 0 l 93 0 "},"s":{"x_min":62,"x_max":618,"ha":682,"o":"m 62 224 l 145 224 q 201 103 148 149 q 338 57 255 57 q 481 92 429 57 q 533 189 533 128 q 341 322 533 276 l 337 323 q 130 405 183 360 q 78 530 78 450 q 146 681 78 623 q 326 739 215 739 q 519 678 447 739 q 599 510 591 617 l 514 510 q 459 624 508 583 q 324 665 409 665 q 207 631 251 665 q 163 541 163 597 q 359 399 163 445 q 398 390 385 393 q 569 314 521 360 q 618 186 618 269 q 542 37 618 95 q 343 -20 466 -20 q 141 46 217 -20 q 62 224 65 112 "},"?":{"x_min":37,"x_max":636,"ha":682,"o":"m 286 244 l 286 328 q 304 427 286 385 q 382 529 322 469 q 429 575 398 545 q 540 763 540 682 q 488 897 540 849 q 345 946 436 946 q 184 888 238 946 q 127 717 129 831 l 37 717 q 120 946 41 867 q 348 1025 200 1025 q 557 956 479 1025 q 636 771 636 887 q 611 656 636 707 q 533 556 587 606 q 498 523 521 545 q 368 317 368 406 l 368 244 l 286 244 m 282 0 l 282 123 l 374 123 l 374 0 l 282 0 "},"c":{"x_min":57,"x_max":672,"ha":717,"o":"m 589 249 l 672 249 q 580 53 660 124 q 372 -18 500 -18 q 141 82 225 -18 q 57 355 57 182 q 142 636 57 534 q 377 739 228 739 q 577 670 499 739 q 662 491 655 602 l 582 491 q 515 617 571 569 q 377 665 459 665 q 206 583 269 665 q 143 362 143 502 q 207 136 143 219 q 379 53 271 53 q 519 105 463 53 q 589 249 576 157 "},"¶":{"x_min":61,"x_max":631,"ha":694,"o":"m 631 960 l 544 960 l 544 0 l 497 0 l 497 960 l 367 960 l 367 0 l 320 0 l 320 530 q 131 599 201 535 q 61 766 61 663 q 134 937 61 872 q 329 1003 208 1003 l 631 1003 l 631 960 "},"•":{"x_min":208,"x_max":609,"ha":819,"o":"m 208 516 q 266 657 208 599 q 409 716 325 716 q 550 657 491 716 q 609 516 609 598 q 549 374 609 433 q 407 315 490 315 q 266 373 324 315 q 208 516 208 432 "},"(":{"x_min":131,"x_max":419,"ha":439,"o":"m 419 999 q 266 699 316 857 q 217 358 217 542 q 266 18 217 174 q 419 -281 316 -138 l 352 -281 q 186 13 242 -147 q 131 358 131 175 q 186 704 131 542 q 352 999 242 865 l 419 999 "},"◊":{"x_min":4,"x_max":682,"ha":686,"o":"m 343 955 l 81 401 l 343 -158 l 604 401 l 343 955 m 343 1121 l 682 401 l 343 -324 l 4 401 l 343 1121 "},"­":{"x_min":54,"x_max":390,"ha":454,"o":"m 54 321 l 54 408 l 390 408 l 390 321 l 54 321 "},":":{"x_min":155,"x_max":247,"ha":401,"o":"m 155 584 l 155 707 l 247 707 l 247 584 l 155 584 m 155 0 l 155 123 l 247 123 l 247 0 l 155 0 "},"Û":{"x_min":104,"x_max":864,"ha":968,"o":"m 104 999 l 196 999 l 196 369 q 264 128 196 203 q 483 54 332 54 q 703 128 634 54 q 772 369 772 203 l 772 999 l 864 999 l 864 356 q 768 68 864 165 q 483 -28 672 -28 q 199 68 294 -28 q 104 356 104 165 l 104 999 m 298 1099 l 433 1336 l 536 1336 l 672 1099 l 609 1099 l 485 1277 l 360 1099 l 298 1099 "},"V":{"x_min":0,"x_max":790,"ha":789,"o":"m 345 0 l 0 999 l 94 999 l 396 117 l 696 999 l 790 999 l 444 0 l 345 0 "}," ":{"x_min":0,"x_max":0,"ha":739},"@":{"x_min":82,"x_max":1307,"ha":1389,"o":"m 884 560 l 925 647 l 979 647 l 886 272 q 876 228 879 247 q 872 198 872 209 q 893 152 872 168 q 951 136 913 136 q 1019 149 984 136 q 1089 187 1055 162 q 1199 328 1158 238 q 1241 519 1241 418 q 1105 818 1241 705 q 749 931 970 931 q 538 898 635 931 q 363 800 441 865 q 205 599 258 714 q 153 345 153 484 q 303 -8 153 123 q 704 -141 453 -141 q 924 -106 813 -141 q 1126 -9 1034 -72 l 1146 -40 q 937 -152 1047 -115 q 706 -190 827 -190 q 474 -158 580 -190 q 286 -64 368 -126 q 132 116 183 13 q 82 353 82 220 q 116 561 82 463 q 216 741 150 660 q 450 921 313 860 q 755 983 587 983 q 962 953 864 983 q 1130 868 1060 923 q 1262 715 1217 802 q 1307 526 1307 628 q 1264 317 1307 412 q 1141 160 1221 223 q 1042 104 1096 123 q 934 85 989 85 q 837 109 870 85 q 804 183 804 134 q 806 206 804 191 q 807 209 807 208 q 722 117 774 150 q 609 85 670 85 q 451 141 505 85 q 397 306 397 197 q 488 568 397 461 q 710 676 579 676 q 818 646 774 676 q 884 560 862 617 m 827 315 l 869 488 q 814 590 854 555 q 711 626 774 626 q 538 532 608 626 q 468 301 468 438 q 507 179 468 223 q 615 135 546 135 q 748 184 690 135 q 827 315 805 233 "},"¾":{"x_min":31,"x_max":1131,"ha":1162,"o":"m 993 178 l 993 464 l 781 178 l 993 178 m 993 0 l 993 135 l 729 135 l 729 178 l 988 528 l 1050 528 l 1050 178 l 1131 178 l 1131 135 l 1050 135 l 1050 0 l 993 0 m 233 -28 l 856 971 l 927 971 l 304 -28 l 233 -28 m 31 571 l 91 570 q 127 476 92 509 q 226 443 162 443 q 330 474 294 443 q 367 563 367 505 q 329 648 367 621 q 212 676 291 676 q 195 675 201 676 q 186 674 189 675 l 185 715 l 208 715 q 314 740 278 715 q 350 817 350 766 q 318 889 350 861 q 233 917 286 917 q 140 885 173 917 q 105 797 107 854 l 51 797 q 102 915 54 873 q 233 958 150 958 q 360 920 313 958 q 407 817 407 882 q 385 747 407 777 q 322 698 364 717 q 399 650 372 685 q 427 561 427 615 q 374 443 427 486 q 229 400 321 400 q 83 445 136 400 q 31 569 31 490 l 31 571 "},"i":{"x_min":102,"x_max":185,"ha":286,"o":"m 102 874 l 102 999 l 185 999 l 185 874 l 102 874 m 102 0 l 102 721 l 185 721 l 185 0 l 102 0 "},"≤":{"x_min":179,"x_max":978,"ha":1157,"o":"m 978 87 l 978 33 l 179 33 l 179 87 l 978 87 m 978 734 l 270 496 l 978 257 l 978 198 l 179 472 l 179 520 l 978 794 l 978 734 "},"m":{"x_min":93,"x_max":1070,"ha":1158,"o":"m 93 0 l 93 721 l 170 721 l 170 601 q 265 703 207 667 q 399 739 324 739 q 533 702 480 739 q 604 597 587 665 q 700 702 640 666 q 836 739 759 739 q 1012 680 954 739 q 1070 502 1070 621 l 1070 0 l 985 0 l 985 495 q 949 626 985 586 q 833 665 914 665 q 680 606 738 665 q 623 451 623 547 l 623 0 l 540 0 l 540 487 q 502 620 540 577 q 388 664 465 664 q 234 603 293 664 q 176 445 176 543 l 176 0 l 93 0 "},"ž":{"x_min":28,"x_max":615,"ha":644,"o":"m 28 0 l 28 69 l 494 652 l 51 652 l 51 721 l 594 721 l 594 647 l 135 74 l 615 74 l 615 0 l 28 0 m 135 1051 l 197 1051 l 322 872 l 446 1051 l 509 1051 l 373 814 l 270 814 l 135 1051 "},"á":{"x_min":57,"x_max":725,"ha":745,"o":"m 557 377 q 471 357 523 365 q 304 344 419 350 q 183 284 224 323 q 143 191 143 246 q 186 93 143 130 q 305 57 230 57 q 488 116 420 57 q 557 277 557 175 l 557 377 m 562 104 q 438 12 505 42 q 295 -18 372 -18 q 121 38 186 -18 q 57 190 57 95 q 86 298 57 252 q 172 371 116 344 q 387 411 236 400 q 431 414 416 413 q 455 419 440 416 q 558 508 558 440 q 516 628 558 592 q 379 665 474 665 q 230 624 282 665 q 175 505 179 584 l 93 505 q 172 676 95 613 q 379 739 248 739 q 575 683 508 739 q 643 520 643 627 l 643 127 q 653 71 643 82 q 694 61 664 61 q 710 61 703 61 q 725 62 717 61 l 725 0 q 693 -5 709 -3 q 665 -7 678 -7 q 588 18 613 -7 q 562 92 562 43 l 562 104 m 355 814 l 293 814 l 434 1051 l 538 1051 l 355 814 "},"×":{"x_min":210,"x_max":949,"ha":1157,"o":"m 579 453 l 909 784 l 949 745 l 618 414 l 949 83 l 909 45 l 579 375 l 249 45 l 210 83 l 540 414 l 210 745 l 249 784 l 579 453 "},"İ":{"x_min":114,"x_max":217,"ha":329,"o":"m 117 0 l 117 999 l 211 999 l 211 0 l 117 0 m 114 1148 l 114 1266 l 217 1266 l 217 1148 l 114 1148 "},"K":{"x_min":111,"x_max":883,"ha":888,"o":"m 111 0 l 111 999 l 203 999 l 203 469 l 718 999 l 836 999 l 430 584 l 883 0 l 769 0 l 369 522 l 203 352 l 203 0 l 111 0 "},"7":{"x_min":82,"x_max":686,"ha":739,"o":"m 208 0 q 343 457 248 242 q 589 858 439 672 l 82 858 l 82 943 l 686 943 l 686 858 q 437 458 531 670 q 305 0 342 246 l 208 0 "},"¨":{"x_min":190,"x_max":504,"ha":694,"o":"m 408 867 l 408 977 l 504 977 l 504 867 l 408 867 m 190 867 l 190 977 l 286 977 l 286 867 l 190 867 "},"Y":{"x_min":-10,"x_max":788,"ha":778,"o":"m 343 0 l 343 438 l -10 999 l 95 999 l 388 526 l 682 999 l 788 999 l 435 438 l 435 0 l 343 0 "},"E":{"x_min":111,"x_max":782,"ha":840,"o":"m 111 0 l 111 999 l 765 999 l 765 917 l 203 917 l 203 552 l 716 552 l 716 473 l 203 473 l 203 82 l 782 82 l 782 0 l 111 0 "},"Ô":{"x_min":68,"x_max":984,"ha":1051,"o":"m 163 498 q 260 173 163 293 q 525 54 358 54 q 791 173 693 54 q 890 498 890 292 q 791 824 890 704 q 525 945 693 945 q 261 823 360 945 q 163 498 163 702 m 68 498 q 191 883 68 741 q 525 1025 314 1025 q 860 883 736 1025 q 984 498 984 741 q 860 113 984 255 q 525 -28 736 -28 q 191 113 314 -28 q 68 498 68 255 m 339 1099 l 474 1336 l 577 1336 l 713 1099 l 650 1099 l 526 1277 l 401 1099 l 339 1099 "},"Ï":{"x_min":8,"x_max":322,"ha":329,"o":"m 117 0 l 117 999 l 211 999 l 211 0 l 117 0 m 226 1152 l 226 1262 l 322 1262 l 322 1152 l 226 1152 m 8 1152 l 8 1262 l 104 1262 l 104 1152 l 8 1152 "},"‹":{"x_min":53,"x_max":250,"ha":317,"o":"m 250 565 l 250 474 l 108 363 l 250 254 l 250 164 l 53 312 l 53 415 l 250 565 "},"±":{"x_min":172,"x_max":984,"ha":1157,"o":"m 984 96 l 984 40 l 172 40 l 172 96 l 984 96 m 605 787 l 605 547 l 984 547 l 984 493 l 605 493 l 605 254 l 551 254 l 551 493 l 172 493 l 172 547 l 551 547 l 551 787 l 605 787 "},"ì":{"x_min":-17,"x_max":228,"ha":286,"o":"m 102 0 l 102 721 l 185 721 l 185 0 l 102 0 m 165 814 l -17 1051 l 86 1051 l 228 814 l 165 814 "},"|":{"x_min":317,"x_max":378,"ha":694,"o":"m 378 1061 l 378 -328 l 317 -328 l 317 1061 l 378 1061 "},"§":{"x_min":74,"x_max":618,"ha":694,"o":"m 258 369 l 439 255 q 509 320 487 287 q 531 393 531 352 q 505 475 531 439 q 417 547 479 511 l 255 647 q 180 593 207 628 q 154 517 154 559 q 181 438 154 477 q 258 369 208 400 m 115 106 l 197 106 l 197 98 q 234 -13 197 26 q 338 -54 272 -54 q 436 -22 400 -54 q 473 61 473 8 q 355 207 473 132 q 324 226 335 219 l 207 301 q 107 391 140 345 q 74 490 74 438 q 107 607 74 557 q 207 692 140 657 q 155 752 172 717 q 138 832 138 786 q 197 971 138 918 q 354 1025 257 1025 q 505 967 448 1025 q 562 812 562 909 l 562 798 l 483 798 q 445 912 481 871 q 345 953 409 953 q 254 921 288 953 q 221 836 221 889 q 245 765 221 797 q 327 700 270 733 l 464 619 q 582 521 546 572 q 618 405 618 471 q 584 298 618 346 q 485 216 551 251 q 539 146 521 184 q 558 62 558 107 q 495 -75 558 -22 q 334 -129 433 -129 q 171 -72 228 -129 q 115 90 115 -15 l 115 106 "},"q":{"x_min":57,"x_max":708,"ha":807,"o":"m 144 359 q 208 134 144 214 q 386 54 272 54 q 568 133 504 54 q 631 359 631 212 q 567 584 631 504 q 386 665 503 665 q 207 585 270 665 q 144 359 144 506 m 708 721 l 708 -290 l 625 -290 l 625 128 q 522 17 585 54 q 374 -20 459 -20 q 142 81 227 -20 q 57 359 57 182 q 142 637 57 536 q 377 739 228 739 q 522 703 461 739 q 625 595 583 667 l 625 721 l 708 721 "},"b":{"x_min":93,"x_max":749,"ha":802,"o":"m 171 359 q 236 134 171 215 q 416 54 301 54 q 596 133 533 54 q 660 359 660 212 q 596 585 660 505 q 416 665 533 665 q 235 585 298 665 q 171 359 171 506 m 93 0 l 93 999 l 176 999 l 176 592 q 279 702 216 665 q 429 739 343 739 q 663 637 577 739 q 749 359 749 535 q 661 81 749 183 q 423 -20 574 -20 q 276 16 340 -20 q 176 124 213 53 l 176 0 l 93 0 "},"®":{"x_min":83,"x_max":1073,"ha":1157,"o":"m 577 730 l 463 730 l 463 518 l 577 518 q 712 542 675 518 q 750 627 750 566 q 708 705 750 680 q 577 730 666 730 m 592 783 q 771 744 714 783 q 829 625 829 706 q 791 524 829 564 q 691 475 753 483 l 820 209 l 731 209 l 607 465 l 463 465 l 463 209 l 385 209 l 385 783 l 592 783 m 1024 488 q 990 658 1024 578 q 895 802 957 739 q 749 900 830 867 q 577 934 668 934 q 406 900 487 934 q 264 805 326 867 q 166 657 200 739 q 132 488 132 576 q 165 319 132 400 q 263 174 199 238 q 408 77 327 111 q 577 43 489 43 q 747 77 665 43 q 895 176 830 112 q 991 318 958 238 q 1024 488 1024 397 m 577 984 q 768 946 678 984 q 929 838 859 909 q 1036 678 999 769 q 1073 488 1073 588 q 1036 298 1073 386 q 929 141 1000 210 q 766 31 857 69 q 577 -7 674 -7 q 389 30 479 -7 q 228 140 299 68 q 120 300 157 210 q 83 488 83 389 q 120 677 83 586 q 230 840 158 768 q 387 947 298 910 q 577 984 476 984 "},"L":{"x_min":111,"x_max":715,"ha":722,"o":"m 111 0 l 111 999 l 205 999 l 205 82 l 715 82 l 715 0 l 111 0 "}," ":{"x_min":0,"x_max":0,"ha":370},"∑":{"x_min":7,"x_max":850,"ha":875,"o":"m 30 999 l 850 999 l 850 916 l 146 916 l 635 382 l 119 -184 l 850 -184 l 850 -266 l 7 -266 l 7 -179 l 517 382 l 30 916 l 30 999 "},"À":{"x_min":-7,"x_max":861,"ha":856,"o":"m 232 387 l 620 387 l 426 901 l 232 387 m -7 0 l 372 999 l 482 999 l 861 0 l 764 0 l 651 307 l 203 307 l 88 0 l -7 0 m 465 1099 l 283 1336 l 386 1336 l 528 1099 l 465 1099 "},"+":{"x_min":172,"x_max":984,"ha":1157,"o":"m 605 829 l 605 442 l 984 442 l 984 386 l 605 386 l 605 0 l 551 0 l 551 386 l 172 386 l 172 442 l 551 442 l 551 829 l 605 829 "},"½":{"x_min":82,"x_max":1125,"ha":1164,"o":"m 726 0 l 726 16 q 760 120 726 74 q 875 210 795 165 q 932 240 895 221 q 1029 299 1007 279 q 1058 339 1049 320 q 1067 384 1067 359 q 1032 469 1067 438 q 937 500 998 500 q 834 464 870 500 q 797 364 798 429 l 742 364 q 795 496 744 450 q 939 543 847 543 q 1075 500 1025 543 q 1125 385 1125 458 q 1113 325 1125 352 q 1076 275 1101 299 q 962 204 1048 248 q 915 180 931 189 q 817 113 847 145 q 783 43 787 81 l 1122 43 l 1122 0 l 726 0 m 233 -28 l 856 971 l 927 971 l 304 -28 l 233 -28 m 235 415 l 235 848 q 179 825 214 832 q 90 818 144 818 l 82 818 l 82 851 l 84 851 q 198 877 161 851 q 240 958 236 903 l 292 958 l 292 415 l 235 415 "},"Ë":{"x_min":111,"x_max":782,"ha":840,"o":"m 111 0 l 111 999 l 765 999 l 765 917 l 203 917 l 203 552 l 716 552 l 716 473 l 203 473 l 203 82 l 782 82 l 782 0 l 111 0 m 508 1152 l 508 1262 l 604 1262 l 604 1152 l 508 1152 m 290 1152 l 290 1262 l 386 1262 l 386 1152 l 290 1152 "},"'":{"x_min":68,"x_max":126,"ha":193,"o":"m 126 973 l 126 598 l 68 598 l 68 973 l 126 973 "},"Š":{"x_min":63,"x_max":777,"ha":842,"o":"m 63 302 l 155 302 q 229 119 156 184 q 435 54 302 54 q 618 106 551 54 q 685 251 685 159 q 638 381 685 336 q 452 462 591 426 l 357 486 q 145 586 204 525 q 87 756 87 646 q 175 951 87 878 q 412 1025 264 1025 q 658 944 570 1025 q 749 721 746 864 l 656 721 q 589 885 653 827 q 409 944 525 944 q 239 894 299 944 q 179 754 179 844 q 218 646 179 685 q 348 583 257 606 l 464 554 q 707 444 637 510 q 777 260 777 377 q 685 49 777 126 q 433 -28 593 -28 q 159 55 255 -28 q 63 295 63 139 l 63 302 m 234 1336 l 296 1336 l 421 1157 l 545 1336 l 608 1336 l 472 1099 l 369 1099 l 234 1336 "},"˛":{"x_min":250,"x_max":443,"ha":694,"o":"m 415 0 q 340 -82 365 -42 q 316 -159 316 -123 q 333 -204 316 -190 q 391 -218 350 -218 l 443 -218 l 443 -289 l 393 -289 q 284 -261 319 -289 q 250 -179 250 -234 q 281 -92 250 -138 q 374 0 313 -47 l 415 0 "},"ð":{"x_min":57,"x_max":720,"ha":775,"o":"m 518 681 q 456 753 493 717 q 369 825 420 789 l 181 727 l 161 775 l 316 858 q 238 901 280 881 q 144 938 195 921 l 164 1006 q 269 965 210 991 q 399 898 327 938 l 571 990 l 595 944 l 444 864 q 650 628 581 757 q 720 351 720 499 q 633 77 720 173 q 387 -18 547 -18 q 143 76 229 -18 q 57 346 57 171 q 142 613 57 513 q 368 713 227 713 q 446 705 410 713 q 518 681 482 697 m 143 351 q 206 133 143 210 q 387 56 270 56 q 568 133 504 56 q 633 351 633 210 q 569 570 633 493 q 387 647 505 647 q 206 570 270 647 q 143 351 143 493 "},"ş":{"x_min":62,"x_max":618,"ha":682,"o":"m 62 224 l 145 224 q 201 103 148 149 q 338 57 255 57 q 481 92 429 57 q 533 189 533 128 q 341 322 533 276 l 337 323 q 130 405 183 360 q 78 530 78 450 q 146 681 78 623 q 326 739 215 739 q 519 678 447 739 q 599 510 591 617 l 514 510 q 459 624 508 583 q 324 665 409 665 q 207 631 251 665 q 163 541 163 597 q 359 399 163 445 q 398 390 385 393 q 569 314 521 360 q 618 186 618 269 q 542 37 618 95 q 343 -20 466 -20 q 141 46 217 -20 q 62 224 65 112 m 200 -284 l 200 -231 q 292 -249 252 -243 q 361 -255 332 -255 q 427 -239 404 -255 q 450 -194 450 -223 q 426 -140 450 -157 q 351 -123 402 -123 q 332 -123 338 -123 q 320 -124 325 -123 l 319 0 l 364 0 l 364 -75 l 373 -75 q 485 -104 446 -75 q 525 -191 525 -134 q 485 -280 525 -249 q 372 -311 446 -311 q 290 -304 332 -311 q 200 -284 248 -298 "},"ı":{"x_min":102,"x_max":185,"ha":286,"o":"m 102 0 l 102 721 l 185 721 l 185 0 l 102 0 "},"Ć":{"x_min":68,"x_max":901,"ha":966,"o":"m 811 326 l 901 326 q 784 65 889 159 q 502 -28 678 -28 q 184 113 301 -28 q 68 501 68 254 q 185 885 68 745 q 504 1025 303 1025 q 778 938 674 1025 q 891 707 883 852 l 801 707 q 710 880 789 817 q 505 944 631 944 q 253 828 343 944 q 163 502 163 712 q 254 172 163 291 q 508 53 346 53 q 721 125 640 53 q 811 326 801 197 m 499 1099 l 437 1099 l 578 1336 l 682 1336 l 499 1099 "},"ä":{"x_min":57,"x_max":725,"ha":745,"o":"m 557 377 q 471 357 523 365 q 304 344 419 350 q 183 284 224 323 q 143 191 143 246 q 186 93 143 130 q 305 57 230 57 q 488 116 420 57 q 557 277 557 175 l 557 377 m 562 104 q 438 12 505 42 q 295 -18 372 -18 q 121 38 186 -18 q 57 190 57 95 q 86 298 57 252 q 172 371 116 344 q 387 411 236 400 q 431 414 416 413 q 455 419 440 416 q 558 508 558 440 q 516 628 558 592 q 379 665 474 665 q 230 624 282 665 q 175 505 179 584 l 93 505 q 172 676 95 613 q 379 739 248 739 q 575 683 508 739 q 643 520 643 627 l 643 127 q 653 71 643 82 q 694 61 664 61 q 710 61 703 61 q 725 62 717 61 l 725 0 q 693 -5 709 -3 q 665 -7 678 -7 q 588 18 613 -7 q 562 92 562 43 l 562 104 m 439 867 l 439 977 l 535 977 l 535 867 l 439 867 m 221 867 l 221 977 l 317 977 l 317 867 l 221 867 "},"¹":{"x_min":86,"x_max":304,"ha":488,"o":"m 244 378 l 244 843 q 188 817 223 825 q 94 810 153 810 l 86 810 l 86 846 l 88 846 q 208 873 168 846 q 251 960 247 900 l 304 960 l 304 378 l 244 378 "},"£":{"x_min":42.65625,"x_max":721,"ha":739,"o":"m 115 -8 l 65 69 q 169 181 133 116 q 206 319 206 245 q 198 378 206 348 q 176 439 191 409 l 42 439 l 42 499 l 146 499 q 90 620 106 571 q 74 714 74 669 q 159 899 74 825 q 375 973 244 973 q 599 893 518 973 q 681 673 681 813 l 681 667 l 595 667 q 535 832 593 773 q 372 892 476 892 q 222 841 279 892 q 166 707 166 790 q 225 543 166 654 q 249 499 241 514 l 472 499 l 472 439 l 276 439 q 287 386 283 410 q 291 343 291 362 q 259 212 291 278 q 164 81 227 147 q 235 110 202 101 q 302 119 269 119 q 416 90 342 119 q 526 61 491 61 q 594 77 561 61 q 674 135 627 93 l 721 70 q 615 -4 666 19 q 515 -29 564 -29 q 385 3 472 -29 q 253 36 299 36 q 182 24 217 36 q 115 -8 148 13 "},"W":{"x_min":8,"x_max":1185,"ha":1193,"o":"m 266 0 l 8 999 l 97 999 l 320 137 l 542 999 l 654 999 l 872 139 l 1097 999 l 1185 999 l 922 0 l 822 0 l 596 887 l 365 0 l 266 0 "},"Ğ":{"x_min":69,"x_max":949,"ha":1040,"o":"m 875 0 l 866 176 q 727 26 819 80 q 517 -28 635 -28 q 188 113 308 -28 q 69 501 69 255 q 191 884 69 744 q 522 1025 313 1025 q 805 941 696 1025 q 936 708 914 858 l 842 708 q 736 881 820 818 q 523 945 651 945 q 256 830 350 945 q 163 502 163 715 q 257 177 163 297 q 513 57 351 57 q 770 154 678 57 q 862 426 862 251 l 862 431 l 532 431 l 532 513 l 949 513 l 949 0 l 875 0 m 335 1305 l 389 1305 q 424 1230 393 1254 q 521 1207 456 1207 q 616 1229 586 1207 q 652 1305 646 1252 l 707 1305 q 656 1170 700 1213 q 521 1128 611 1128 q 386 1170 431 1128 q 335 1305 341 1213 "},"v":{"x_min":4,"x_max":637,"ha":643,"o":"m 275 0 l 4 721 l 93 721 l 324 101 l 550 721 l 637 721 l 367 0 l 275 0 "},">":{"x_min":179,"x_max":978,"ha":1157,"o":"m 978 434 l 978 392 l 179 66 l 179 125 l 887 413 l 179 700 l 179 762 l 978 434 "},"û":{"x_min":90,"x_max":657,"ha":751,"o":"m 657 721 l 657 0 l 576 0 l 576 115 q 475 13 535 46 q 335 -20 416 -20 q 151 44 212 -20 q 90 236 90 108 l 90 721 l 173 721 l 173 255 q 213 102 173 147 q 349 57 254 57 q 513 120 453 57 q 574 294 574 183 l 574 721 l 657 721 m 189 814 l 324 1051 l 427 1051 l 563 814 l 500 814 l 376 992 l 251 814 l 189 814 "},"Ð":{"x_min":6.796875,"x_max":900,"ha":974,"o":"m 353 999 l 421 999 q 605 986 544 999 q 711 944 666 973 q 851 772 803 886 q 900 501 900 659 q 847 214 900 330 q 691 42 794 99 q 585 9 648 19 q 392 0 521 0 l 117 0 l 117 490 l 6 490 l 6 558 l 117 558 l 117 999 l 353 999 m 210 82 l 403 82 q 567 90 515 82 q 654 119 619 98 q 768 258 730 164 q 806 498 806 352 q 770 732 806 638 q 662 872 734 825 q 573 906 626 896 q 393 917 520 917 l 371 917 l 210 917 l 210 558 l 509 558 l 509 490 l 210 490 l 210 82 "},"r":{"x_min":93,"x_max":406,"ha":427,"o":"m 93 0 l 93 721 l 173 721 l 173 595 q 260 703 204 667 q 396 739 315 739 l 406 739 l 406 652 l 395 652 q 233 588 287 652 q 179 397 179 524 l 179 0 l 93 0 "},"Č":{"x_min":68,"x_max":901,"ha":966,"o":"m 811 326 l 901 326 q 784 65 889 159 q 502 -28 678 -28 q 184 113 301 -28 q 68 501 68 254 q 185 885 68 745 q 504 1025 303 1025 q 778 938 674 1025 q 891 707 883 852 l 801 707 q 710 880 789 817 q 505 944 631 944 q 253 828 343 944 q 163 502 163 712 q 254 172 163 291 q 508 53 346 53 q 721 125 640 53 q 811 326 801 197 m 335 1336 l 397 1336 l 522 1157 l 646 1336 l 709 1336 l 573 1099 l 470 1099 l 335 1336 "},"x":{"x_min":0,"x_max":618,"ha":619,"o":"m 0 0 l 253 369 l 11 721 l 115 721 l 305 433 l 490 721 l 592 721 l 355 371 l 618 0 l 512 0 l 306 305 l 99 0 l 0 0 "},"è":{"x_min":57,"x_max":681,"ha":736,"o":"m 142 344 l 142 339 q 205 129 142 207 q 376 51 269 51 q 518 96 461 51 q 587 222 575 142 l 670 222 q 575 46 657 112 q 371 -20 494 -20 q 140 79 223 -20 q 57 356 57 179 q 140 637 57 536 q 373 739 224 739 q 599 642 518 739 q 681 371 681 545 l 681 344 l 142 344 m 143 411 l 595 410 q 530 597 589 529 q 372 666 470 666 q 211 596 273 666 q 143 411 149 527 m 390 814 l 208 1051 l 311 1051 l 453 814 l 390 814 "},"Ø":{"x_min":48.484375,"x_max":988.78125,"ha":1051,"o":"m 228 216 l 768 844 q 654 919 715 894 q 526 945 593 945 q 260 823 359 945 q 161 498 161 702 q 177 341 161 411 q 228 216 194 270 m 104 -36 l 48 8 l 169 145 q 91 300 117 212 q 66 498 66 388 q 191 882 66 740 q 527 1025 316 1025 q 692 997 618 1025 q 826 913 767 969 l 934 1037 l 988 993 l 874 860 q 956 703 930 789 q 982 498 982 617 q 858 114 982 256 q 527 -28 735 -28 q 351 1 430 -28 q 213 91 272 31 l 104 -36 m 271 161 q 387 80 324 106 q 526 54 450 54 q 789 175 690 54 q 889 501 889 296 q 870 661 889 590 q 812 790 851 732 l 271 161 "},"÷":{"x_min":173,"x_max":987,"ha":1157,"o":"m 580 247 q 627 226 608 247 q 647 178 647 206 q 627 131 647 151 q 580 112 608 112 q 532 131 551 112 q 513 178 513 150 q 532 226 513 206 q 580 247 552 247 m 987 442 l 987 386 l 173 386 l 173 442 l 987 442 m 580 716 q 627 696 608 716 q 647 648 647 677 q 627 601 647 621 q 580 581 608 581 q 532 601 551 581 q 513 648 513 621 q 532 696 513 676 q 580 716 551 716 "},"h":{"x_min":93,"x_max":660,"ha":751,"o":"m 93 0 l 93 999 l 178 999 l 178 608 q 277 705 218 672 q 415 739 337 739 q 544 711 487 739 q 630 637 601 684 q 653 574 646 611 q 660 438 660 537 l 660 0 l 575 0 l 575 437 q 536 618 575 572 q 398 664 497 664 q 237 599 297 664 q 178 425 178 534 l 178 0 l 93 0 "},".":{"x_min":139,"x_max":231,"ha":370,"o":"m 139 0 l 139 123 l 231 123 l 231 0 l 139 0 "},"f":{"x_min":27.890625,"x_max":348,"ha":370,"o":"m 134 0 l 134 653 l 27 653 l 27 721 l 134 721 l 134 852 q 174 970 134 933 q 305 1008 215 1008 q 325 1006 314 1008 q 348 1003 335 1005 l 348 928 q 339 928 345 928 q 301 931 312 931 q 236 911 255 931 q 217 843 217 892 l 217 721 l 348 721 l 348 653 l 217 653 l 217 0 l 134 0 "},"“":{"x_min":122,"x_max":426,"ha":549,"o":"m 215 1025 l 215 972 q 182 937 192 958 q 172 880 172 915 l 172 832 l 215 832 l 215 708 l 122 708 l 122 874 q 126 930 122 910 q 141 967 131 951 q 170 1000 152 986 q 215 1025 188 1014 m 426 1025 l 426 972 q 392 937 402 958 q 382 880 382 915 l 382 832 l 426 832 l 426 708 l 334 708 l 334 874 q 354 971 334 937 q 426 1025 375 1005 "},"A":{"x_min":-7,"x_max":861,"ha":856,"o":"m 232 387 l 620 387 l 426 901 l 232 387 m -7 0 l 372 999 l 482 999 l 861 0 l 764 0 l 651 307 l 203 307 l 88 0 l -7 0 "},"O":{"x_min":68,"x_max":984,"ha":1051,"o":"m 163 498 q 260 173 163 293 q 525 54 358 54 q 791 173 693 54 q 890 498 890 292 q 791 824 890 704 q 525 945 693 945 q 261 823 360 945 q 163 498 163 702 m 68 498 q 191 883 68 741 q 525 1025 314 1025 q 860 883 736 1025 q 984 498 984 741 q 860 113 984 255 q 525 -28 736 -28 q 191 113 314 -28 q 68 498 68 255 "},"π":{"x_min":4,"x_max":764,"ha":783,"o":"m 747 650 l 624 650 l 543 266 q 528 190 533 224 q 523 138 523 157 q 540 82 523 98 q 597 66 557 66 q 631 67 616 66 q 660 72 646 69 l 643 0 q 607 -8 623 -6 q 578 -11 592 -11 q 479 25 515 -11 q 443 126 443 62 q 450 209 443 157 q 481 364 458 260 l 540 650 l 282 650 l 144 0 l 62 0 l 198 650 l 172 650 q 114 628 134 650 q 86 559 93 606 l 4 559 q 61 686 20 651 q 201 721 102 721 l 764 721 l 747 650 "},"‘":{"x_min":122,"x_max":215,"ha":338,"o":"m 215 1025 l 215 972 q 181 935 191 956 q 172 880 172 914 l 172 832 l 215 832 l 215 708 l 122 708 l 122 874 q 143 970 122 935 q 215 1025 165 1004 "},"3":{"x_min":49,"x_max":676,"ha":739,"o":"m 49 278 l 143 277 q 200 108 144 168 q 358 49 256 49 q 524 104 466 49 q 582 265 582 160 q 522 415 582 366 q 337 465 462 465 q 311 464 320 465 q 296 463 303 464 l 295 536 q 313 535 302 536 q 330 534 324 534 q 498 580 442 534 q 555 719 555 627 q 504 847 555 798 q 369 896 453 896 q 221 840 274 896 q 166 682 169 785 l 80 682 q 161 894 84 818 q 370 971 239 971 q 570 902 496 971 q 645 719 645 834 q 611 592 645 646 q 511 506 577 538 q 633 419 591 482 q 676 262 676 357 q 591 50 676 128 q 364 -28 507 -28 q 133 52 217 -28 q 49 275 49 133 l 49 278 "},"9":{"x_min":47,"x_max":680,"ha":739,"o":"m 141 656 q 195 469 141 535 q 350 404 250 404 q 505 471 444 404 q 566 642 566 538 q 508 825 566 757 q 353 894 451 894 q 195 833 249 894 q 141 656 141 772 m 143 218 q 203 91 155 134 q 333 49 252 49 q 517 156 453 49 q 588 479 581 263 q 488 367 552 405 q 338 329 424 329 q 125 416 204 329 q 47 653 47 503 q 127 884 47 798 q 346 971 208 971 q 594 855 509 971 q 680 519 680 739 q 589 112 680 252 q 325 -28 498 -28 q 139 36 210 -28 q 58 218 69 101 l 143 218 "},"l":{"x_min":102,"x_max":185,"ha":286,"o":"m 102 0 l 102 999 l 185 999 l 185 0 l 102 0 "},"":{"x_min":27.890625,"x_max":549,"ha":650,"o":"m 464 0 l 464 721 l 549 721 l 549 0 l 464 0 m 464 874 l 464 999 l 549 999 l 549 874 l 464 874 m 134 0 l 134 653 l 27 653 l 27 721 l 134 721 l 134 852 q 174 970 134 933 q 305 1008 215 1008 q 325 1007 314 1008 q 348 1003 335 1006 l 348 928 q 339 929 345 928 q 301 931 312 931 q 236 911 255 931 q 217 844 217 892 l 217 721 l 348 721 l 348 653 l 217 653 l 217 0 l 134 0 "},"4":{"x_min":52,"x_max":690,"ha":739,"o":"m 470 317 l 470 827 l 135 317 l 470 317 m 470 0 l 470 240 l 52 240 l 52 317 l 463 943 l 560 943 l 560 317 l 690 317 l 690 240 l 560 240 l 560 0 l 470 0 "},"Ü":{"x_min":104,"x_max":864,"ha":968,"o":"m 104 999 l 196 999 l 196 369 q 264 128 196 203 q 483 54 332 54 q 703 128 634 54 q 772 369 772 203 l 772 999 l 864 999 l 864 356 q 768 68 864 165 q 483 -28 672 -28 q 199 68 294 -28 q 104 356 104 165 l 104 999 m 546 1152 l 546 1262 l 642 1262 l 642 1152 l 546 1152 m 328 1152 l 328 1262 l 424 1262 l 424 1152 l 328 1152 "},"à":{"x_min":57,"x_max":725,"ha":745,"o":"m 557 377 q 471 357 523 365 q 304 344 419 350 q 183 284 224 323 q 143 191 143 246 q 186 93 143 130 q 305 57 230 57 q 488 116 420 57 q 557 277 557 175 l 557 377 m 562 104 q 438 12 505 42 q 295 -18 372 -18 q 121 38 186 -18 q 57 190 57 95 q 86 298 57 252 q 172 371 116 344 q 387 411 236 400 q 431 414 416 413 q 455 419 440 416 q 558 508 558 440 q 516 628 558 592 q 379 665 474 665 q 230 624 282 665 q 175 505 179 584 l 93 505 q 172 676 95 613 q 379 739 248 739 q 575 683 508 739 q 643 520 643 627 l 643 127 q 653 71 643 82 q 694 61 664 61 q 710 61 703 61 q 725 62 717 61 l 725 0 q 693 -5 709 -3 q 665 -7 678 -7 q 588 18 613 -7 q 562 92 562 43 l 562 104 m 400 814 l 218 1051 l 321 1051 l 463 814 l 400 814 "},"ó":{"x_min":57,"x_max":720,"ha":775,"o":"m 143 359 q 207 134 143 214 q 387 55 271 55 q 569 134 505 55 q 633 359 633 213 q 569 585 633 505 q 387 665 505 665 q 207 585 271 665 q 143 359 143 505 m 57 359 q 143 639 57 540 q 387 739 230 739 q 632 639 545 739 q 720 359 720 540 q 633 80 720 179 q 387 -18 546 -18 q 143 80 230 -18 q 57 359 57 179 m 364 814 l 302 814 l 443 1051 l 547 1051 l 364 814 "}}}
